<svg width="20" height="20" viewBox="0 0 20 20" fill="none" xmlns="http://www.w3.org/2000/svg">
<path d="M20 1.66683V5.00016C20 5.22117 19.9122 5.43313 19.7559 5.58941C19.5997 5.74569 19.3877 5.83349 19.1667 5.83349C18.9457 5.83349 18.7337 5.74569 18.5774 5.58941C18.4212 5.43313 18.3334 5.22117 18.3334 5.00016V2.86599L13.9167 7.25849C13.8418 7.34633 13.7494 7.41765 13.6455 7.46792C13.5416 7.51819 13.4284 7.54632 13.313 7.55053C13.1976 7.55473 13.0826 7.53492 12.9753 7.49235C12.868 7.44978 12.7707 7.38538 12.6896 7.30323C12.6085 7.22108 12.5454 7.12297 12.5042 7.01513C12.463 6.90728 12.4446 6.79205 12.4503 6.67675C12.456 6.56145 12.4856 6.44858 12.5371 6.34531C12.5887 6.24203 12.6612 6.15061 12.75 6.07682L17.175 1.66683H15C14.779 1.66683 14.567 1.57903 14.4108 1.42275C14.2545 1.26647 14.1667 1.05451 14.1667 0.833492C14.1667 0.612478 14.2545 0.400516 14.4108 0.244236C14.567 0.0879559 14.779 0.000158489 15 0.000158489H18.3334C18.7754 0.000158489 19.1993 0.175753 19.5119 0.488314C19.8244 0.800874 20 1.2248 20 1.66683ZM17.2125 12.3802C16.7314 11.9223 16.0924 11.6674 15.4282 11.6684C14.764 11.6693 14.1257 11.926 13.6459 12.3852L12.0575 13.7235C10.7609 13.187 9.58313 12.3996 8.59178 11.4066C7.60043 10.4135 6.81508 9.23434 6.28086 7.93683L7.61419 6.35349C8.07335 5.87361 8.33004 5.23532 8.33098 4.57116C8.33191 3.907 8.077 3.26799 7.61919 2.78683C7.61919 2.78683 6.07585 0.782658 6.05086 0.755992C5.57501 0.277542 4.93013 0.00536385 4.25537 -0.00180774C3.58062 -0.00897934 2.9301 0.249431 2.44419 0.717658L1.48669 1.55099C-4.94664 8.39182 11.6534 24.9993 18.4867 18.4677L19.2467 17.5935C19.7296 17.1092 20.0008 16.4532 20.0008 15.7693C20.0008 15.0854 19.7296 14.4294 19.2467 13.9452L17.2125 12.3802Z" fill="#05028D"/>
</svg>
