<svg width="20" height="20" viewBox="0 0 20 20" fill="none" xmlns="http://www.w3.org/2000/svg">
<path d="M13.3333 6.66684C13.1771 6.51061 12.9651 6.42285 12.7442 6.42285C12.5232 6.42285 12.3113 6.51061 12.155 6.66684L10 8.82184L7.845 6.66684C7.68783 6.51504 7.47733 6.43105 7.25883 6.43295C7.04033 6.43484 6.83132 6.52248 6.67682 6.67699C6.52231 6.8315 6.43467 7.04051 6.43277 7.25901C6.43087 7.4775 6.51487 7.688 6.66667 7.84517L8.82167 10.0002L6.66667 12.1552C6.51487 12.3123 6.43087 12.5228 6.43277 12.7413C6.43467 12.9598 6.52231 13.1688 6.67682 13.3234C6.83132 13.4779 7.04033 13.5655 7.25883 13.5674C7.47733 13.5693 7.68783 13.4853 7.845 13.3335L10 11.1785L12.155 13.3335C12.3122 13.4853 12.5227 13.5693 12.7412 13.5674C12.9597 13.5655 13.1687 13.4779 13.3232 13.3234C13.4777 13.1688 13.5653 12.9598 13.5672 12.7413C13.5691 12.5228 13.4851 12.3123 13.3333 12.1552L11.1783 10.0002L13.3333 7.84517C13.4896 7.6889 13.5773 7.47698 13.5773 7.25601C13.5773 7.03504 13.4896 6.82311 13.3333 6.66684Z" fill="#DE0201"/>
<path d="M10 0C8.02219 0 6.08879 0.58649 4.4443 1.6853C2.79981 2.78412 1.51809 4.3459 0.761209 6.17317C0.00433286 8.00043 -0.193701 10.0111 0.192152 11.9509C0.578004 13.8907 1.53041 15.6725 2.92894 17.0711C4.32746 18.4696 6.10929 19.422 8.0491 19.8079C9.98891 20.1937 11.9996 19.9957 13.8268 19.2388C15.6541 18.4819 17.2159 17.2002 18.3147 15.5557C19.4135 13.9112 20 11.9778 20 10C19.9971 7.34872 18.9426 4.80684 17.0679 2.9321C15.1932 1.05736 12.6513 0.00286757 10 0ZM10 18.3333C8.35183 18.3333 6.74066 17.8446 5.37025 16.9289C3.99984 16.0132 2.93174 14.7117 2.30101 13.189C1.67028 11.6663 1.50525 9.99076 1.82679 8.37425C2.14834 6.75774 2.94201 5.27288 4.10745 4.10744C5.27289 2.94201 6.75774 2.14833 8.37425 1.82679C9.99076 1.50525 11.6663 1.67027 13.189 2.301C14.7118 2.93173 16.0132 3.99984 16.9289 5.37025C17.8446 6.74066 18.3333 8.35182 18.3333 10C18.3309 12.2094 17.4522 14.3276 15.8899 15.8899C14.3276 17.4522 12.2094 18.3309 10 18.3333Z" fill="#DE0201"/>
</svg>
