<svg width="21" height="16" viewBox="0 0 21 16" fill="none" xmlns="http://www.w3.org/2000/svg">
<path d="M5.0835 12.167C5.77385 12.167 6.3335 11.6073 6.3335 10.917C6.3335 10.2266 5.77385 9.66699 5.0835 9.66699C4.39314 9.66699 3.8335 10.2266 3.8335 10.917C3.8335 11.6073 4.39314 12.167 5.0835 12.167Z" fill="#969696"/>
<path d="M16.3333 0.5H4.66667C3.562 0.501323 2.50296 0.940735 1.72185 1.72185C0.940735 2.50296 0.501323 3.562 0.5 4.66667L0.5 11.3333C0.501323 12.438 0.940735 13.497 1.72185 14.2782C2.50296 15.0593 3.562 15.4987 4.66667 15.5H16.3333C17.438 15.4987 18.497 15.0593 19.2782 14.2782C20.0593 13.497 20.4987 12.438 20.5 11.3333V4.66667C20.4987 3.562 20.0593 2.50296 19.2782 1.72185C18.497 0.940735 17.438 0.501323 16.3333 0.5ZM4.66667 2.16667H16.3333C16.9964 2.16667 17.6323 2.43006 18.1011 2.8989C18.5699 3.36774 18.8333 4.00363 18.8333 4.66667H2.16667C2.16667 4.00363 2.43006 3.36774 2.8989 2.8989C3.36774 2.43006 4.00363 2.16667 4.66667 2.16667ZM16.3333 13.8333H4.66667C4.00363 13.8333 3.36774 13.5699 2.8989 13.1011C2.43006 12.6323 2.16667 11.9964 2.16667 11.3333V6.33333H18.8333V11.3333C18.8333 11.9964 18.5699 12.6323 18.1011 13.1011C17.6323 13.5699 16.9964 13.8333 16.3333 13.8333Z" fill="#969696"/>
</svg>
