<svg width="20" height="20" viewBox="0 0 20 20" fill="none" xmlns="http://www.w3.org/2000/svg">
<path d="M15.4167 12.0833C15.5809 12.0834 15.7435 12.1158 15.8951 12.1787C16.0468 12.2416 16.1846 12.3337 16.3007 12.4499C16.4168 12.566 16.5089 12.7039 16.5716 12.8556C16.6344 13.0073 16.6667 13.17 16.6667 13.3342C16.6666 13.4984 16.6342 13.661 16.5713 13.8126C16.5084 13.9643 16.4163 14.1021 16.3001 14.2182C16.184 14.3343 16.0461 14.4264 15.8944 14.4891C15.7426 14.5519 15.58 14.5842 15.4158 14.5842C15.0842 14.5841 14.7662 14.4522 14.5318 14.2176C14.2974 13.9831 14.1657 13.665 14.1658 13.3333C14.1659 13.0017 14.2978 12.6837 14.5324 12.4493C14.7669 12.2149 15.085 12.0832 15.4167 12.0833ZM19.1667 8.33333C18.9457 8.33333 18.7337 8.42113 18.5774 8.57741C18.4211 8.73369 18.3333 8.94565 18.3333 9.16667V17.5C18.3333 17.721 18.2455 17.933 18.0893 18.0893C17.933 18.2455 17.721 18.3333 17.5 18.3333H4.16667C2.78833 18.3333 1.66667 17.2117 1.66667 15.8333V7.49583C2.38729 8.03781 3.26415 8.33165 4.16583 8.33333H10.8333C11.0543 8.33333 11.2663 8.24554 11.4226 8.08926C11.5789 7.93297 11.6667 7.72101 11.6667 7.5C11.6667 7.27899 11.5789 7.06702 11.4226 6.91074C11.2663 6.75446 11.0543 6.66667 10.8333 6.66667H4.16667C3.81735 6.66407 3.47245 6.58828 3.15423 6.44417C2.83601 6.30006 2.55154 6.09083 2.31917 5.83C2.55157 5.56969 2.8362 5.36124 3.15452 5.21824C3.47284 5.07523 3.8177 5.00087 4.16667 5H10C10.221 5 10.433 4.9122 10.5893 4.75592C10.7455 4.59964 10.8333 4.38768 10.8333 4.16667C10.8333 3.94565 10.7455 3.73369 10.5893 3.57741C10.433 3.42113 10.221 3.33333 10 3.33333H4.16667C1.85333 3.32833 0.0166667 5.25333 0 7.5V15.8333C0 18.1308 1.86917 20 4.16667 20H17.5C18.8783 20 20 18.8783 20 17.5V9.16667C20 8.94565 19.9122 8.73369 19.7559 8.57741C19.5996 8.42113 19.3877 8.33333 19.1667 8.33333ZM14.5808 7.82083C14.9083 8.14772 15.3516 8.33195 15.8143 8.33335C16.277 8.33476 16.7214 8.15323 17.0508 7.82833L18.9142 6.01417C19.0652 5.85855 19.1497 5.65017 19.1496 5.43328C19.1495 5.2164 19.0648 5.0081 18.9136 4.85264C18.7623 4.69718 18.5565 4.6068 18.3397 4.60071C18.1229 4.59461 17.9122 4.67328 17.7525 4.82L16.6667 5.87667V0.833333C16.6667 0.61232 16.5789 0.400358 16.4226 0.244078C16.2663 0.0877974 16.0543 0 15.8333 0C15.6123 0 15.4004 0.0877974 15.2441 0.244078C15.0878 0.400358 15 0.61232 15 0.833333V5.89167L13.9192 4.82417C13.8413 4.74723 13.7491 4.68639 13.6477 4.64511C13.5463 4.60383 13.4378 4.58292 13.3283 4.58358C13.2189 4.58424 13.1106 4.60645 13.0097 4.64894C12.9089 4.69144 12.8173 4.75339 12.7404 4.83125C12.6635 4.90911 12.6026 5.00137 12.5614 5.10274C12.5201 5.20412 12.4992 5.31263 12.4998 5.42209C12.5012 5.64315 12.5902 5.85463 12.7475 6.01L14.5808 7.82083Z" fill="#FFA500"/>
</svg>
