<svg width="21" height="18" viewBox="0 0 21 18" fill="none" xmlns="http://www.w3.org/2000/svg">
<path d="M18 4.00033H4.66667C4.31524 3.99968 3.96786 3.92524 3.64702 3.78184C3.32618 3.63843 3.03904 3.42924 2.80417 3.16783C3.03832 2.90541 3.32529 2.69544 3.64626 2.55168C3.96724 2.40792 4.31497 2.33363 4.66667 2.33366H19.6667C19.8877 2.33366 20.0996 2.24586 20.2559 2.08958C20.4122 1.9333 20.5 1.72134 20.5 1.50033C20.5 1.27931 20.4122 1.06735 20.2559 0.91107C20.0996 0.75479 19.8877 0.666992 19.6667 0.666992H4.66667C3.5616 0.666992 2.50179 1.10598 1.72039 1.88738C0.938987 2.66878 0.5 3.72859 0.5 4.83366L0.5 13.167C0.5 14.2721 0.938987 15.3319 1.72039 16.1133C2.50179 16.8947 3.5616 17.3337 4.66667 17.3337H18C18.663 17.3337 19.2989 17.0703 19.7678 16.6014C20.2366 16.1326 20.5 15.4967 20.5 14.8337V6.50033C20.5 5.83728 20.2366 5.2014 19.7678 4.73256C19.2989 4.26372 18.663 4.00033 18 4.00033ZM18.8333 14.8337C18.8333 15.2928 18.46 15.667 18 15.667H4.66667C3.28833 15.667 2.16667 14.5453 2.16667 13.167V4.83199C2.88803 5.37287 3.76505 5.66579 4.66667 5.66699H18C18.46 5.66699 18.8333 6.04116 18.8333 6.50033V14.8337ZM17.1667 10.667C17.1667 10.888 17.0789 11.1 16.9226 11.2562C16.7663 11.4125 16.5543 11.5003 16.3333 11.5003C16.1123 11.5003 15.9004 11.4125 15.7441 11.2562C15.5878 11.1 15.5 10.888 15.5 10.667C15.5 10.446 15.5878 10.234 15.7441 10.0777C15.9004 9.92146 16.1123 9.83366 16.3333 9.83366C16.5543 9.83366 16.7663 9.92146 16.9226 10.0777C17.0789 10.234 17.1667 10.446 17.1667 10.667Z" fill="#969696"/>
</svg>
