<svg width="16" height="16" viewBox="0 0 16 16" fill="none" xmlns="http://www.w3.org/2000/svg">
<path d="M11.3333 6.69267C8.76067 6.69267 6.66667 8.786 6.66667 11.3593C6.66667 13.918 8.76067 16 11.3333 16C13.906 16 16 13.9067 16 11.3333C16 8.77467 13.906 6.69267 11.3333 6.69267ZM11.3333 14.6667C9.49533 14.6667 8 13.1827 8 11.3593C8 9.52133 9.49533 8.026 11.3333 8.026C13.1713 8.026 14.6667 9.51 14.6667 11.3333C14.6667 13.1713 13.1713 14.6667 11.3333 14.6667ZM12.4713 11.5287C12.5963 11.6537 12.6666 11.8232 12.6666 12C12.6666 12.1768 12.5963 12.3463 12.4713 12.4713C12.3463 12.5963 12.1768 12.6666 12 12.6666C11.8232 12.6666 11.6537 12.5963 11.5287 12.4713L10.862 11.8047C10.737 11.6797 10.6667 11.5101 10.6667 11.3333V10C10.6667 9.82319 10.7369 9.65362 10.8619 9.5286C10.987 9.40357 11.1565 9.33333 11.3333 9.33333C11.5101 9.33333 11.6797 9.40357 11.8047 9.5286C11.9298 9.65362 12 9.82319 12 10V11.0573L12.4713 11.5287ZM16 4.66667V6C16 6.17681 15.9298 6.34638 15.8047 6.4714C15.6797 6.59643 15.5101 6.66667 15.3333 6.66667C15.1565 6.66667 14.987 6.59643 14.8619 6.4714C14.7369 6.34638 14.6667 6.17681 14.6667 6V4.66667C14.6667 3.564 13.7693 2.66667 12.6667 2.66667H3.33333C2.23067 2.66667 1.33333 3.564 1.33333 4.66667V5.33333H7.33333C7.51014 5.33333 7.67971 5.40357 7.80474 5.5286C7.92976 5.65362 8 5.82319 8 6C8 6.17681 7.92976 6.34638 7.80474 6.4714C7.67971 6.59643 7.51014 6.66667 7.33333 6.66667H1.33333V12.6667C1.33333 13.7693 2.23067 14.6667 3.33333 14.6667H6C6.17681 14.6667 6.34638 14.7369 6.4714 14.8619C6.59643 14.987 6.66667 15.1565 6.66667 15.3333C6.66667 15.5101 6.59643 15.6797 6.4714 15.8047C6.34638 15.9298 6.17681 16 6 16H3.33333C1.49533 16 0 14.5047 0 12.6667V4.66667C0 2.82867 1.49533 1.33333 3.33333 1.33333H4V0.666667C4 0.489856 4.07024 0.320286 4.19526 0.195262C4.32029 0.0702379 4.48986 0 4.66667 0C4.84348 0 5.01305 0.0702379 5.13807 0.195262C5.2631 0.320286 5.33333 0.489856 5.33333 0.666667V1.33333H10.6667V0.666667C10.6667 0.489856 10.7369 0.320286 10.8619 0.195262C10.987 0.0702379 11.1565 0 11.3333 0C11.5101 0 11.6797 0.0702379 11.8047 0.195262C11.9298 0.320286 12 0.489856 12 0.666667V1.33333H12.6667C14.5047 1.33333 16 2.82867 16 4.66667Z" fill="#969696"/>
</svg>
