<svg width="14" height="16" viewBox="0 0 14 16" fill="none" xmlns="http://www.w3.org/2000/svg">
<path d="M13.0002 2.66667H10.9335C10.7788 1.91428 10.3694 1.23823 9.77433 0.752479C9.17928 0.266727 8.43497 0.000969683 7.66683 0L6.3335 0C5.56536 0.000969683 4.82104 0.266727 4.226 0.752479C3.63095 1.23823 3.22156 1.91428 3.06683 2.66667H1.00016C0.823352 2.66667 0.653782 2.7369 0.528758 2.86193C0.403734 2.98695 0.333496 3.15652 0.333496 3.33333C0.333496 3.51014 0.403734 3.67971 0.528758 3.80474C0.653782 3.92976 0.823352 4 1.00016 4H1.66683V12.6667C1.66789 13.5504 2.01942 14.3976 2.64431 15.0225C3.2692 15.6474 4.11643 15.9989 5.00016 16H9.00016C9.88389 15.9989 10.7311 15.6474 11.356 15.0225C11.9809 14.3976 12.3324 13.5504 12.3335 12.6667V4H13.0002C13.177 4 13.3465 3.92976 13.4716 3.80474C13.5966 3.67971 13.6668 3.51014 13.6668 3.33333C13.6668 3.15652 13.5966 2.98695 13.4716 2.86193C13.3465 2.7369 13.177 2.66667 13.0002 2.66667ZM6.3335 1.33333H7.66683C8.08035 1.33384 8.48358 1.46225 8.82124 1.70096C9.1589 1.93967 9.41444 2.27699 9.55283 2.66667H4.4475C4.58588 2.27699 4.84143 1.93967 5.17909 1.70096C5.51675 1.46225 5.91998 1.33384 6.3335 1.33333ZM11.0002 12.6667C11.0002 13.1971 10.7894 13.7058 10.4144 14.0809C10.0393 14.456 9.5306 14.6667 9.00016 14.6667H5.00016C4.46973 14.6667 3.96102 14.456 3.58595 14.0809C3.21088 13.7058 3.00016 13.1971 3.00016 12.6667V4H11.0002V12.6667Z" fill="#969696"/>
<path d="M5.66667 12.0003C5.84348 12.0003 6.01305 11.9301 6.13807 11.8051C6.2631 11.68 6.33333 11.5105 6.33333 11.3337V7.33366C6.33333 7.15685 6.2631 6.98728 6.13807 6.86225C6.01305 6.73723 5.84348 6.66699 5.66667 6.66699C5.48986 6.66699 5.32029 6.73723 5.19526 6.86225C5.07024 6.98728 5 7.15685 5 7.33366V11.3337C5 11.5105 5.07024 11.68 5.19526 11.8051C5.32029 11.9301 5.48986 12.0003 5.66667 12.0003ZM8.33333 12.0003C8.51014 12.0003 8.67971 11.9301 8.80474 11.8051C8.92976 11.68 9 11.5105 9 11.3337V7.33366C9 7.15685 8.92976 6.98728 8.80474 6.86225C8.67971 6.73723 8.51014 6.66699 8.33333 6.66699C8.15652 6.66699 7.98695 6.73723 7.86193 6.86225C7.7369 6.98728 7.66667 7.15685 7.66667 7.33366V11.3337C7.66667 11.5105 7.7369 11.68 7.86193 11.8051C7.98695 11.9301 8.15652 12.0003 8.33333 12.0003Z" fill="#969696"/>
</svg>
