<svg width="16" height="16" viewBox="0 0 16 16" fill="none" xmlns="http://www.w3.org/2000/svg">
<path d="M15.9999 2.30655C15.9829 1.96691 15.8946 1.63466 15.7407 1.33142C15.5868 1.02818 15.3707 0.760754 15.1066 0.546545C14.1533 -0.233455 12.6999 -0.126788 11.7866 0.786545L10.6733 1.89988C10.1265 1.53486 9.48395 1.33999 8.82659 1.33988C7.93325 1.33988 7.09992 1.68655 6.46659 2.31321L4.44659 4.33321C4.38487 4.39493 4.33591 4.46821 4.3025 4.54885C4.2691 4.62949 4.25191 4.71592 4.25191 4.80321C4.25191 4.8905 4.2691 4.97693 4.3025 5.05757C4.33591 5.13822 4.38487 5.21149 4.44659 5.27321C4.50831 5.33493 4.58158 5.38389 4.66223 5.4173C4.74287 5.4507 4.8293 5.46789 4.91659 5.46789C5.00388 5.46789 5.09031 5.4507 5.17095 5.4173C5.25159 5.38389 5.32487 5.33493 5.38659 5.27321L7.40659 3.25321C7.99992 2.65988 8.93992 2.53321 9.68659 2.87321L1.37992 11.1932C0.919921 11.6532 0.666588 12.2599 0.666588 12.9065C0.666588 13.3265 0.773254 13.7265 0.973254 14.0865L0.199921 14.8599C0.10689 14.953 0.043625 15.0716 0.0181612 15.2008C-0.00730263 15.3299 0.00618314 15.4637 0.056906 15.5851C0.107629 15.7066 0.1933 15.8102 0.303041 15.8829C0.412782 15.9555 0.541641 15.9939 0.673254 15.9932C0.846588 15.9932 1.01325 15.9265 1.14659 15.7999L1.91992 15.0265C2.27325 15.2265 2.67992 15.3332 3.09992 15.3332C3.74659 15.3332 4.35992 15.0799 4.81325 14.6199L15.2866 4.13988C15.7733 3.65321 16.0266 2.98655 15.9933 2.29988L15.9999 2.30655ZM3.86659 13.6799C3.45325 14.0932 2.73325 14.0932 2.31992 13.6799C2.11325 13.4732 1.99992 13.1999 1.99992 12.9065C1.99992 12.6132 2.11325 12.3399 2.31992 12.1332L10.7199 3.73988L12.2666 5.28655L3.86659 13.6799ZM14.3466 3.19988L13.2066 4.33988L11.6599 2.79321L12.7266 1.72655C12.9733 1.47988 13.2933 1.35321 13.6066 1.35321C13.8466 1.35321 14.0733 1.42655 14.2599 1.57988C14.5066 1.77988 14.6466 2.05988 14.6666 2.37321C14.6799 2.67988 14.5666 2.98655 14.3466 3.19988Z" fill="#969696"/>
</svg>
