<svg width="51" height="50" viewBox="0 0 51 50" fill="none" xmlns="http://www.w3.org/2000/svg">
<path d="M44.3281 0H25.5C22.0912 0 19.3281 2.75801 19.3281 6.17188V34.4139C19.3281 35.6121 20.7022 36.3129 21.6719 35.5857L27.5572 31.1718H44.3282C47.737 31.1719 50.5 28.4138 50.5 25V6.17188C50.5 2.76289 47.742 0 44.3281 0ZM33.4491 23.3269H27.069C26.26 23.3269 25.6042 22.6711 25.6042 21.862C25.6042 21.0529 26.26 20.3972 27.069 20.3972H33.4491C34.2583 20.3972 34.914 21.0529 34.914 21.862C34.914 22.6711 34.2583 23.3269 33.4491 23.3269ZM42.7593 17.051H27.0689C26.2599 17.051 25.6041 16.3947 25.6041 15.5861C25.6041 14.777 26.2599 14.1213 27.0689 14.1213H42.7592C43.568 14.1213 44.224 14.777 44.224 15.5861C44.224 16.3947 43.5685 17.051 42.7593 17.051ZM42.7593 10.7746H27.0689C26.2599 10.7746 25.6041 10.1188 25.6041 9.30977C25.6041 8.50107 26.2599 7.84492 27.0689 7.84492H42.7592C43.568 7.84492 44.224 8.50107 44.224 9.30977C44.224 10.1188 43.5685 10.7746 42.7593 10.7746ZM16.7342 30.4588C16.7342 34.283 13.634 37.3833 9.80977 37.3833C5.98555 37.3833 2.88535 34.2831 2.88535 30.4588C2.88535 26.6342 5.98555 23.534 9.80977 23.534C13.634 23.534 16.7342 26.6342 16.7342 30.4588ZM9.80977 37.3833C4.66836 37.3833 0.5 41.5516 0.5 46.6931V48.5352C0.5 49.3442 1.15576 50 1.96484 50H17.6551C18.4638 50 19.1199 49.3442 19.1199 48.5352V46.6931C19.1199 41.5516 14.9516 37.3833 9.80977 37.3833Z" fill="#969696"/>
</svg>
