<svg width="20" height="20" viewBox="0 0 20 20" fill="none" xmlns="http://www.w3.org/2000/svg">
<path d="M3.75 9.16634H0.833333C0.61232 9.16634 0.400358 9.07854 0.244078 8.92226C0.0877974 8.76598 0 8.55402 0 8.33301C0 8.11199 0.0877974 7.90003 0.244078 7.74375C0.400358 7.58747 0.61232 7.49967 0.833333 7.49967H3.75C3.97101 7.49967 4.18298 7.58747 4.33926 7.74375C4.49554 7.90003 4.58333 8.11199 4.58333 8.33301C4.58333 8.55402 4.49554 8.76598 4.33926 8.92226C4.18298 9.07854 3.97101 9.16634 3.75 9.16634ZM8.46167 1.66634C8.46167 1.44533 8.37387 1.23337 8.21759 1.07709C8.06131 0.920805 7.84935 0.833008 7.62833 0.833008H0.833333C0.61232 0.833008 0.400358 0.920805 0.244078 1.07709C0.0877974 1.23337 0 1.44533 0 1.66634C0 1.88735 0.0877974 2.09932 0.244078 2.2556C0.400358 2.41188 0.61232 2.49967 0.833333 2.49967H7.62833C7.84935 2.49967 8.06131 2.41188 8.21759 2.2556C8.37387 2.09932 8.46167 1.88735 8.46167 1.66634ZM6.795 4.99967C6.795 4.77866 6.7072 4.5667 6.55092 4.41042C6.39464 4.25414 6.18268 4.16634 5.96167 4.16634H0.833333C0.61232 4.16634 0.400358 4.25414 0.244078 4.41042C0.0877974 4.5667 0 4.77866 0 4.99967C0 5.22069 0.0877974 5.43265 0.244078 5.58893C0.400358 5.74521 0.61232 5.83301 0.833333 5.83301H5.96167C6.18268 5.83301 6.39464 5.74521 6.55092 5.58893C6.7072 5.43265 6.795 5.22069 6.795 4.99967ZM12.5475 16.6663C12.517 16.8032 12.5008 16.9428 12.4992 17.083C12.4992 17.6355 12.7187 18.1654 13.1094 18.5561C13.5001 18.9468 14.03 19.1663 14.5825 19.1663C15.135 19.1663 15.6649 18.9468 16.0556 18.5561C16.4463 18.1654 16.6658 17.6355 16.6658 17.083C16.6658 16.9397 16.6458 16.8013 16.6175 16.6663H12.5467H12.5475ZM12.4992 14.9997V4.99967C12.4993 4.20517 12.2722 3.42719 11.8448 2.75746C11.4173 2.08772 10.8073 1.55416 10.0867 1.21967C10.1976 1.83516 10.0741 2.46987 9.74047 2.99886C9.40688 3.52786 8.88736 3.91283 8.28417 4.07801C8.42929 4.44592 8.48518 4.84298 8.44726 5.23666C8.40933 5.63034 8.27866 6.00943 8.06596 6.34287C7.85327 6.67631 7.56459 6.95461 7.22359 7.15496C6.88259 7.35531 6.49897 7.47201 6.10417 7.49551C6.23746 7.87266 6.27843 8.27627 6.22365 8.67251C6.16887 9.06876 6.01993 9.44611 5.7893 9.77295C5.55868 10.0998 5.25309 10.3666 4.89813 10.551C4.54317 10.7355 4.14918 10.8322 3.74917 10.833H0.833333C0.540833 10.833 0.260833 10.7822 0 10.6897V11.6663C0 12.5504 0.35119 13.3982 0.976311 14.0234C1.60143 14.6485 2.44928 14.9997 3.33333 14.9997H12.5H12.4992ZM3.38083 16.6663C3.35031 16.8032 3.33411 16.9428 3.3325 17.083C3.3325 17.6355 3.55199 18.1654 3.94269 18.5561C4.3334 18.9468 4.8633 19.1663 5.41583 19.1663C5.96837 19.1663 6.49827 18.9468 6.88897 18.5561C7.27967 18.1654 7.49917 17.6355 7.49917 17.083C7.49917 16.9397 7.47917 16.8013 7.45083 16.6663H3.38083ZM14.1658 14.9997H16.6658C17.5499 14.9997 18.3977 14.6485 19.0229 14.0234C19.648 13.3982 19.9992 12.5504 19.9992 11.6663V10.833H14.1658V14.9997ZM15.8325 4.16634H14.1658V9.16634H19.9992V8.33301C19.9992 7.22794 19.5602 6.16813 18.7788 5.38673C17.9974 4.60533 16.9376 4.16634 15.8325 4.16634Z" fill="#007BFF"/>
</svg>
