<svg width="358" height="329" viewBox="0 0 358 329" fill="none" xmlns="http://www.w3.org/2000/svg">
<g clip-path="url(#clip0_168_2361)">
<path d="M309.75 152.479C309.75 156.438 309.561 160.353 309.187 164.218C309.048 165.64 308.886 167.057 308.696 168.468C308.328 171.251 307.865 174 307.308 176.716C306.967 178.378 306.594 180.029 306.181 181.668C293.142 233.99 245.834 272.755 189.474 272.755C133.114 272.755 85.8114 233.991 72.7727 181.669C71.6964 177.358 70.8542 172.952 70.2575 168.468C69.5603 163.237 69.2032 157.9 69.2032 152.479C69.2032 148.96 69.3538 145.475 69.6549 142.028C70.458 132.637 72.3485 123.552 75.1982 114.902C76.2525 111.69 77.4402 108.539 78.7451 105.455C80.4014 101.563 82.2586 97.7704 84.2997 94.1009C87.5176 88.3064 91.2094 82.8078 95.3085 77.6547C95.8103 77.0246 96.3235 76.3945 96.8366 75.7752C101.231 70.4717 106.072 65.5474 111.314 61.0635C113.684 59.0393 116.138 57.0983 118.67 55.2526C121.76 52.9995 124.955 50.8915 128.257 48.9339C136.678 43.9427 145.757 39.9549 155.338 37.1276C166.157 33.9262 177.618 32.209 189.474 32.209C190.076 32.209 190.673 32.2144 191.275 32.2257C208.307 32.4712 224.485 36.2636 239.103 42.8941C261.299 52.9605 279.892 69.5684 292.423 90.2584C297.503 98.6404 301.586 107.692 304.508 117.25C305.043 119.002 305.54 120.77 305.997 122.56C307.876 129.899 309.081 137.511 309.538 145.324C309.678 147.688 309.75 150.075 309.75 152.479Z" fill="#A7BDD3"/>
<path d="M308.696 168.468C308.328 171.251 307.865 174 307.308 176.716C306.967 178.378 306.594 180.029 306.181 181.668C293.142 233.99 245.834 272.755 189.474 272.755C133.114 272.755 85.8114 233.991 72.7728 181.669C72.7671 181.635 72.756 181.607 72.7504 181.574C72.6221 181.066 72.4995 180.559 72.3822 180.046C72.2763 179.6 72.1758 179.153 72.0755 178.707C71.674 176.906 71.3115 175.088 70.9935 173.259C70.9267 172.891 70.8652 172.523 70.8037 172.149C70.603 170.928 70.4189 169.701 70.2572 168.468L308.696 168.468Z" fill="#D6E3F3"/>
<path d="M305.997 122.557L111.314 61.0609C113.685 59.0367 116.139 57.0957 118.67 55.2499C121.76 52.9969 124.956 50.8889 128.257 48.9312C136.678 43.9401 145.757 39.9526 155.338 37.125L292.423 90.2558C297.504 98.6381 301.586 107.689 304.508 117.248C305.043 118.999 305.54 120.767 305.997 122.557Z" fill="url(#paint0_linear_168_2361)"/>
<path d="M280.851 168.468H70.2575C69.5603 163.237 69.2032 157.9 69.2032 152.479C69.2032 148.96 69.3538 145.475 69.6549 142.028C70.458 132.637 72.3485 123.552 75.1982 114.902C76.2525 111.69 77.4402 108.539 78.7451 105.455L280.851 168.468Z" fill="url(#paint1_linear_168_2361)"/>
<path d="M260.674 64.8438H225.54V94.5742H260.674V64.8438Z" fill="#EFCEB4"/>
<path d="M245.438 94.5739H225.54V64.8438H237.034L245.438 94.5739Z" fill="url(#paint2_linear_168_2361)"/>
<path d="M235.3 57.7666H191.8V94.5738H235.3V57.7666Z" fill="#EFCEB4"/>
<mask id="mask0_168_2361" style="mask-type:luminance" maskUnits="userSpaceOnUse" x="69" y="32" width="241" height="241">
<path d="M309.751 152.478C309.751 156.438 309.561 160.353 309.188 164.218C309.048 165.64 308.887 167.056 308.697 168.467C300.878 227.337 250.48 272.754 189.475 272.754C128.47 272.754 78.0771 227.337 70.2581 168.467C69.5609 163.236 69.2041 157.899 69.2041 152.478C69.2041 131.292 74.6806 111.388 84.3007 94.0999C104.829 57.1812 144.235 32.208 189.475 32.208C255.901 32.2077 309.751 86.0524 309.751 152.478Z" fill="white"/>
</mask>
<g mask="url(#mask0_168_2361)">
<path d="M312.602 142.349H64.3455C65.1569 143.082 65.5785 144.095 65.6447 145.137H312.499C312.504 144.206 312.538 143.274 312.602 142.349Z" fill="white"/>
<path d="M78.8701 97.3618H302.017C301.591 96.4274 301.154 95.4975 300.706 94.5732H79.5885C79.684 95.5655 79.462 96.5679 78.8701 97.3618Z" fill="white"/>
<path d="M120.18 49.1046C119.665 49.2803 119.143 49.4348 118.619 49.5864H262.873C261.721 48.6481 260.559 47.7194 259.39 46.7979H124.568C123.239 47.8119 121.662 48.5989 120.18 49.1046Z" fill="white"/>
<path d="M280.844 66.1426V168.468H283.633V69.2088C282.718 68.173 281.789 67.1503 280.844 66.1426Z" fill="white"/>
<path d="M187.153 29.6553H184.365V168.467H187.153V29.6553Z" fill="white"/>
<path d="M87.8848 78.178V168.468H90.6734V77.0273C89.9105 77.6956 88.9009 78.0906 87.8848 78.178Z" fill="white"/>
</g>
<path d="M140.214 105.247H96.2501V142.271H140.214V105.247Z" fill="#EFCEB4"/>
<path d="M177.503 113.093H147.509V143.087H177.503V113.093Z" fill="#EFCEB4"/>
<path d="M84.1998 114.9V142.026H69.6552C70.4583 132.635 72.3488 123.55 75.1985 114.9H84.1998Z" fill="#CC9B7A"/>
<path d="M179.614 62.9521H142.707V94.5728H179.614V62.9521Z" fill="#CC9B7A"/>
<path d="M140.214 55.25V94.5724H96.8369V75.7729C103.222 68.0601 110.562 61.1561 118.67 55.2503H140.214V55.25Z" fill="#EFCEB4"/>
<path d="M200.709 91.665H193.849V92.1919H200.709V91.665Z" fill="#CC9B7A"/>
<path d="M196.873 84.9799H195.746V90.7765H194.955V84.9799H193.849L195.361 82.4766L196.873 84.9799Z" fill="#CC9B7A"/>
<path d="M200.641 84.9799H199.513V90.7765H198.723V84.9799H197.616L199.129 82.4766L200.641 84.9799Z" fill="#CC9B7A"/>
<path d="M206.859 88.7055V91.5328H208.538V92.3234H204.288V91.5328H206.069V88.7055C204.764 88.5157 203.76 87.3907 203.76 86.0336V82.4766H205.649L205.046 83.5649L205.705 84.1052L205.046 85.4727L206.416 84.2502L206.205 83.3122L206.759 82.7746V82.4769H209.162V86.0339C209.162 87.3904 208.164 88.513 206.859 88.7055Z" fill="#CC9B7A"/>
<path d="M127.969 68.5098H120.402V69.0909H127.969V68.5098Z" fill="#CC9B7A"/>
<path d="M123.738 61.1358H122.494V67.5288H121.623V61.1358H120.402L122.07 58.375L123.738 61.1358Z" fill="#CC9B7A"/>
<path d="M127.894 61.1358H126.65V67.5288H125.778V61.1358H124.558L126.226 58.375L127.894 61.1358Z" fill="#CC9B7A"/>
<path d="M134.752 65.2447V68.3626H136.603V69.2343H131.916V68.3626H133.88V65.2447C132.442 65.0353 131.335 63.7945 131.335 62.2981V58.375H133.418L132.753 59.5752L133.479 60.171L132.753 61.679L134.264 60.3306L134.031 59.296L134.641 58.7032V58.375H137.292V62.2981C137.292 63.7945 136.19 65.0326 134.752 65.2447Z" fill="#CC9B7A"/>
<path d="M126.009 139.934H119.63V140.423H126.009V139.934Z" fill="#CC9B7A"/>
<path d="M122.443 133.717H121.394V139.107H120.659V133.717H119.63L121.037 131.39L122.443 133.717Z" fill="#CC9B7A"/>
<path d="M125.946 133.717H124.898V139.107H124.163V133.717H123.134L124.54 131.39L125.946 133.717Z" fill="#CC9B7A"/>
<path d="M131.728 137.181V139.81H133.289V140.545H129.337V139.81H130.993V137.181C129.78 137.005 128.847 135.959 128.847 134.697V131.39H130.604L130.042 132.402L130.655 132.904L130.042 134.175L131.316 133.039L131.12 132.167L131.635 131.667V131.39H133.869V134.697C133.869 135.959 132.941 137.002 131.728 137.181Z" fill="#CC9B7A"/>
<path d="M161.59 70.8545H140.214V94.0985H161.59V70.8545Z" fill="#EFCEB4"/>
<path d="M148.947 94.099H140.214V75.4893L148.947 94.099Z" fill="url(#paint3_linear_168_2361)"/>
<path d="M175.086 94.5726H162.51L161.59 94.0986V71.6016L175.086 94.5726Z" fill="url(#paint4_linear_168_2361)"/>
<path d="M239.103 42.892V46.7569H191.276V32.2236C205.837 32.4354 219.768 35.235 232.639 40.182C234.825 41.0239 236.983 41.9275 239.103 42.892Z" fill="#EFCEB4"/>
<path d="M239.103 42.892V46.7569H236.169L232.639 40.1816C234.825 41.0238 236.983 41.9275 239.103 42.892Z" fill="url(#paint5_linear_168_2361)"/>
<path d="M235.3 73.9807H216.129V57.7666H212.225V73.9807H191.891V77.8847H212.225V94.0988H216.129V77.8847H235.3V73.9807Z" fill="url(#paint6_linear_168_2361)"/>
<path d="M191.727 131.674L186.853 139.063L179.949 149.52C173.647 155.214 167.072 154.823 159.403 153.329C155.712 152.604 151.769 151.623 147.48 150.942C145.891 150.686 144.245 150.468 142.556 150.329C144.156 143.72 146.677 138.221 150.079 133.793C150.396 133.37 150.725 132.962 151.066 132.561C155.299 127.536 160.769 124.012 167.417 121.909C170.178 121.034 173.134 120.404 176.296 120.019C176.602 119.98 176.909 119.941 177.221 119.907C178.292 119.796 179.385 119.707 180.501 119.645C181.047 119.617 181.594 119.59 182.146 119.579C182.28 119.568 182.419 119.568 182.553 119.562C182.848 119.556 183.138 119.551 183.434 119.545L184.148 120.588L184.321 120.844L186.173 123.555L188.219 126.544L191.727 131.674Z" fill="#FC201F"/>
<path d="M205.527 165.173L194.139 172.657C187.374 164.537 185.105 154.984 183.153 144.779L191.724 131.673C203.425 136.597 205.734 142.771 204.668 164.019L205.527 165.173Z" fill="#DE0201"/>
<path d="M152.619 152.121C161.102 139.276 171.539 124.72 169.722 120.891L174.183 119.775C174.942 123.655 172.979 130.187 167.863 136.878L180.875 140.038L189.984 129.071L191.727 131.673L179.76 149.891C174.679 155.666 166.19 155.095 152.619 152.121Z" fill="#05028D"/>
<path d="M193.673 129.955L192.207 131.248L191.727 131.672C187.377 131.527 184.36 128.421 182.732 124.004L187.684 121.478C187.79 121.594 187.913 121.706 188.047 121.807C187.344 124.121 188.203 126.514 189.764 128.103C190.829 129.196 192.229 129.91 193.673 129.955Z" fill="url(#paint7_linear_168_2361)"/>
<path d="M193.674 129.954L192.207 131.248C191.432 130.807 190.852 130.099 190.35 129.307C190.11 128.928 189.915 128.521 189.764 128.103C190.829 129.195 192.229 129.91 193.674 129.954Z" fill="#FF926C"/>
<path d="M220.936 182.239C228.894 183.611 227.444 186.789 219.542 183.817C226.418 186.555 225.398 188.741 217.869 185.027C225.526 191.128 215.694 187.787 207.273 183.164C206.899 182.958 206.525 182.751 206.163 182.539C202.968 180.693 200.263 178.713 197.948 176.617L207.418 167.722L213.223 175.546C219.458 175.719 224.935 175.663 224.89 176.617C224.868 177.097 223.446 177.832 220.005 178.981C228.66 181.87 229.352 182.802 220.936 182.239Z" fill="url(#paint8_linear_168_2361)"/>
<path d="M220.936 182.238C228.894 183.61 227.444 186.789 219.542 183.816C226.418 186.554 225.398 188.74 217.869 185.026C225.526 191.127 215.694 187.787 207.273 183.163C206.899 182.957 206.525 182.751 206.163 182.539L224.89 176.616C224.868 177.096 223.446 177.832 220.005 178.981C228.66 181.87 229.352 182.801 220.936 182.238Z" fill="#FF926C"/>
<path d="M208.388 166.807L207.418 167.722L197.948 176.617L196.119 178.335L193.704 172.942L194.139 172.658L205.527 165.173L206.715 164.393L208.388 166.807Z" fill="#DE0201"/>
<path d="M205.429 164.997L193.606 172.769L193.836 173.118L205.659 165.347L205.429 164.997Z" fill="white"/>
<path d="M262.417 221.724L255.66 223.599L245.542 226.407L244.831 226.605L235.302 229.255C235.244 229.273 235.185 229.284 235.127 229.302L226.984 231.562L226.774 231.62L211.623 235.826L209.124 231.102L207.72 228.446L197.358 208.862C200.567 207.732 203.783 206.613 206.951 205.541C207.091 205.495 207.237 205.442 207.377 205.396C209.2 204.778 211.017 204.178 212.8 203.608C224.345 199.914 234.993 197.305 242.763 198.19C244.132 198.342 245.408 198.604 246.584 198.988C248.198 200.491 249.712 202.087 251.157 203.811C252.986 206.001 254.71 208.395 256.405 211.058C257.413 212.642 258.409 214.32 259.417 216.108C259.464 216.195 259.516 216.288 259.569 216.381C260.506 218.06 261.456 219.836 262.417 221.724Z" fill="#DE0201"/>
<path d="M208.364 217.347C206.835 215.667 205.712 213.702 205.421 212.1C205.085 210.246 204.983 208.09 205.621 206.302C208.24 198.958 217.542 197.182 220.07 205.712C221.356 210.052 222.064 217.912 217.137 220.539C214.352 222.024 210.83 220.055 208.364 217.347Z" fill="#C62626"/>
<path d="M257.402 239.321C249.666 245.437 235.983 247.475 224.223 243.293C224.223 243.253 224.601 241.132 224.601 241.097L225.393 237.2L226.477 231.818C226.482 231.772 226.581 231.701 226.774 231.62C227.799 231.171 231.335 230.263 235.127 229.301C235.185 229.284 235.244 229.272 235.302 229.255C239.076 228.288 243.061 227.274 245.029 226.599C245.222 226.529 245.391 226.465 245.542 226.407C245.647 226.366 245.74 226.325 245.822 226.29L247.033 225.958L255.66 223.582L262.417 221.724C265.219 229.039 262.708 235.138 257.402 239.321Z" fill="#DE0201"/>
<path d="M257.402 239.321C257.431 238.779 257.443 238.301 257.448 237.905C257.478 233.449 257.122 229.383 256.056 225.119C255.928 224.613 255.8 224.106 255.66 223.599V223.582C254.25 218.298 252.421 213.254 249.666 208.5C248.047 205.716 246.252 202.629 244.179 199.92C243.719 199.32 243.247 198.743 242.763 198.19C242.35 197.724 241.924 197.27 241.493 196.845C241.325 196.676 241.144 196.495 240.969 196.314C242.833 197.043 244.709 197.928 246.584 198.988C248.198 200.491 249.712 202.087 251.157 203.811C252.986 206.001 254.71 208.395 256.405 211.057C257.413 212.642 258.409 214.319 259.417 216.108C259.464 216.195 259.516 216.288 259.569 216.381C260.506 218.059 261.456 219.836 262.417 221.723C265.219 229.039 262.708 235.138 257.402 239.321Z" fill="#FF2A29"/>
<path d="M199.853 124.758C199.228 126.063 198.313 127.329 197.137 128.562C196.06 129.582 194.85 129.995 193.674 129.956C190.138 129.85 186.859 125.717 188.046 121.808C187.912 121.707 187.79 121.596 187.684 121.479C186.329 120.051 186.741 117.832 188.309 119.198C190.078 113.328 200.658 114.158 200.79 121.401C200.745 121.925 200.65 122.444 200.516 122.957C202.262 122.633 202.713 124.089 199.853 124.758Z" fill="url(#paint9_linear_168_2361)"/>
<path d="M248.008 224.969C246.907 228.595 243.49 232.225 240.348 233.274C235.969 234.735 231.732 235.228 227.22 234.148C225.069 233.633 222.172 233.063 220.904 231.051C218.017 226.475 223.441 221.192 227.08 219.173C232.295 216.28 239.292 214.999 244.906 217.611C248.29 219.186 248.886 222.076 248.008 224.969Z" fill="#C62626"/>
<path d="M261.587 218.92L241.52 224.035L232.311 209.909L249.919 201.725L246.582 198.987L236.021 203.373L207.188 215.338L202.015 217.488C202.021 217.516 202.032 217.552 202.038 217.581L197.355 208.861C168.976 216.858 170.077 221.093 136.053 223.126L136.216 237.863C141.337 237.992 146.474 238.126 151.536 238.172C173.321 238.376 193.703 237.001 205.831 226.347C206.669 227.623 207.613 228.794 208.673 229.854C210.642 231.84 212.984 233.454 215.727 234.683L262.415 221.722L261.587 218.92Z" fill="#05028D"/>
<path d="M241.364 213.73C237.098 210.92 230.915 211.58 226.319 212.574C224.517 212.964 222.725 213.424 220.945 213.943C220.914 213.894 220.88 213.843 220.849 213.794C218.968 210.791 216.634 206.661 213.135 205.312C206.721 202.841 205.807 212.824 207.71 216.65C208.024 217.281 208.361 217.913 208.711 218.54C197.856 223.549 187.824 230.677 179.456 238.814C177.587 240.632 175.334 244.367 178.773 245.309C180.789 245.861 183.806 244.015 185.789 243.622C191.813 242.434 197.823 242.488 203.665 240.508C210.321 238.252 217.32 236.778 224.2 235.362C228.606 234.455 233.053 233.556 237.245 231.881C241.115 230.335 245.631 228.974 247.081 224.58C248.458 220.41 244.824 216.008 241.364 213.73Z" fill="#2D2AB5"/>
<path d="M124.66 247.81C126.5 247.727 128.342 247.693 130.184 247.681C131.768 247.37 133.353 247.066 134.942 246.778C135.04 246.741 135.148 246.72 135.265 246.721C137.993 246.23 140.727 245.781 143.475 245.404C146.54 244.983 149.636 244.637 152.734 244.371C154.51 243.939 156.297 243.55 158.114 243.286C159.796 243.042 161.608 242.824 163.364 242.94C161.067 241.206 158.003 239.706 155.038 238.431C151.542 236.929 148.187 235.739 146.395 234.846C143.182 233.244 139.839 232.125 136.561 230.664C134.143 229.586 131.575 228.916 129.122 227.934C127.283 227.199 126.017 225.793 124.373 225.011C124.187 224.923 123.998 224.854 123.809 224.783C123.696 225.034 123.575 225.28 123.454 225.526C123.46 225.665 123.434 225.806 123.367 225.935C120.63 231.203 117.617 236.349 114.338 241.318C115.321 242.155 116.291 243.007 117.257 243.865C119.708 245.211 122.181 246.516 124.66 247.81Z" fill="url(#paint10_linear_168_2361)"/>
<path d="M294.808 234.986L294.786 235.047C292.126 234.105 289.761 234.217 288.713 236.057C288.049 237.217 287.82 238.388 287.932 239.531C288.088 241.171 288.941 242.755 290.196 244.177L290.152 244.216C286.939 242.749 284.708 241.003 283.325 239.258C283.32 239.252 283.32 239.252 283.32 239.247C281.87 237.429 281.346 235.633 281.597 234.194C282.199 230.725 287.319 229.364 294.808 234.986Z" fill="#05028D"/>
<path d="M290.152 244.215L290.196 244.178C294.241 248.809 302.505 251.834 305.193 249.843L305.239 249.931C300.808 255.264 294.679 255.861 289.919 252.728C283.804 248.692 285.603 244.432 283.323 239.26C284.707 241.002 286.942 242.75 290.152 244.215Z" fill="#05028D"/>
<path d="M191.508 116.246C188.352 121.354 185.061 117.194 189.229 115.821C185.269 119.136 188.096 113.605 191.384 114.339C197.149 112.419 198.49 112.706 195.895 114.957C203.17 112.696 203.143 114.316 199.294 115.711C202.095 115.808 202.938 115.671 200.843 116.829C202.976 117.854 201.831 118.039 200.816 118.434C201.987 120.911 198.446 119.512 197.273 118.112C197.446 120.067 193.089 118.474 191.508 116.246Z" fill="#0C161C"/>
<path d="M136.215 237.867C127.666 241.648 122.808 244.336 117.555 241.943C115.101 240.237 118.916 232.396 130.722 223.439L132.886 223.311L136.053 223.127L136.159 232.747L136.215 237.867Z" fill="#435460"/>
<path d="M294.788 235.047C300.62 237.097 307.879 244.158 305.882 248.974C305.738 249.332 305.499 249.619 305.193 249.843C302.504 251.834 294.241 248.809 290.196 244.178C288.067 241.753 287.099 238.875 288.711 236.055C289.761 234.213 292.128 234.106 294.788 235.047Z" fill="#435460"/>
<path d="M306.646 245.8C304.677 249.897 288.465 243.448 292.941 236.446C295.929 231.771 309.309 240.262 306.646 245.8Z" fill="#0C161C"/>
<path d="M292.099 234.835C287.855 242.28 304.809 250.15 306.625 245.76C306.771 254.28 282.652 241.462 292.099 234.835Z" fill="#A7BDD3"/>
<path d="M265.62 211.693L262.166 212.748L261.267 213.02L260.641 213.211L258.89 213.75L258.63 213.832L257.488 214.179L254.665 215.043L254.306 215.153C248.263 214.082 250.212 205.941 252.758 204.14L263.22 201.444L264.368 201.149L264.548 201.103C264.055 201.671 263.655 202.245 263.348 202.83C262.606 204.233 262.374 205.693 262.565 207.2C262.629 207.67 262.733 208.139 262.873 208.615C262.884 208.65 262.89 208.679 262.901 208.714C262.959 208.928 263.035 209.148 263.116 209.363C263.116 209.374 263.122 209.386 263.128 209.397C263.226 209.664 263.354 209.913 263.51 210.145C263.916 210.765 264.501 211.252 265.197 211.536C265.209 211.542 265.226 211.548 265.238 211.553C265.365 211.6 265.493 211.647 265.62 211.693Z" fill="url(#paint11_linear_168_2361)"/>
<path d="M203.414 187.442H179.528C179.662 185.808 179.845 184.202 180.035 182.651L197.234 180.565C199.326 181.541 202.755 183.321 203.414 187.442Z" fill="#435460"/>
<path d="M201.213 157.126C201.23 158.615 201.152 160.249 200.973 162.039C200.483 167.014 199.25 173.16 197.237 180.566L190.522 181.38L184.56 182.105L180.038 182.652C181.421 171.264 182.954 162.999 165.17 169.457C161.974 185.663 151.066 188.49 139.41 187.61C133.426 187.164 127.247 185.741 121.809 184.654C120.895 182.479 120.27 180.51 119.863 178.726C118.536 172.898 119.545 168.944 120.538 165.709C127.81 166.033 134.486 167.923 140.492 171.548C140.375 163.501 141.072 156.44 142.556 150.328C154.395 151.332 163.692 155.738 172.035 153.791C174.756 153.156 177.377 151.845 179.948 149.519C193.696 142.459 201.074 144.171 201.213 157.126Z" fill="#05028D"/>
<path d="M122.504 189.394C108.417 190.604 109.967 173.104 116.37 165.692C117.781 165.642 119.169 165.647 120.536 165.709C119.236 169.936 117.914 175.39 121.807 184.653L122.504 189.394Z" fill="#435460"/>
<path d="M253.447 203.67C251.789 206.595 251.206 210.152 252.014 214.11L249.506 213.905C248.332 211.866 248.312 206.313 251.297 203.772L253.447 203.67Z" fill="#DE0201"/>
<path d="M252.014 214.11L251.144 216.465C254.446 218.11 257.567 216.955 259.179 215.799L258.566 213.804C255.216 214.823 253.375 215.351 252.014 214.11Z" fill="#DE0201"/>
<path d="M268.906 200.193C265.854 199.192 269.664 194.559 271.012 197.227C269.644 194.637 270.301 193.543 272.685 197.313C279.506 196.017 279.371 200.468 276.182 200.099C282.717 202.196 281.353 203.767 278.642 202.451C280.838 204.515 280.302 206.288 278.228 204.582C278.829 208.427 277.038 208.779 275.919 207.334C275.562 210.272 273.742 208.893 273.342 207.384L268.906 200.193Z" fill="#6D2E03"/>
<path d="M275.26 206.864C274.425 207.78 273.526 208.609 272.57 209.357C274.037 210.365 273.729 211.901 271.179 210.36C270.53 210.8 269.863 211.2 269.168 211.565C268.814 211.751 268.443 211.884 268.055 211.959C267.921 211.982 267.794 212 267.661 212.011C267.411 212.029 267.156 212.023 266.907 211.988C266.467 211.924 266.032 211.826 265.62 211.692C265.493 211.646 265.365 211.6 265.238 211.553C264.867 211.403 264.519 211.2 264.218 210.939C263.731 210.533 263.354 210.006 263.128 209.397C262.038 206.476 262.299 203.688 264.548 201.103C264.571 201.074 264.6 201.045 264.623 201.016C263.835 198.819 265.644 197.608 266.31 199.851C266.327 199.839 266.345 199.833 266.362 199.822C269.011 198.35 273.075 199.283 275.034 201.462C275.526 202.013 275.88 202.639 276.048 203.323C276.315 204.383 276.118 205.589 275.26 206.864Z" fill="url(#paint12_linear_168_2361)"/>
<path d="M269.201 203.94C268.927 204.175 268.579 204.217 268.422 204.035C268.266 203.853 268.361 203.515 268.635 203.28C268.909 203.046 269.258 203.003 269.414 203.185C269.57 203.367 269.475 203.705 269.201 203.94Z" fill="#0C161C"/>
<path d="M271.823 207.063C271.549 207.298 271.2 207.34 271.044 207.158C270.888 206.976 270.983 206.638 271.257 206.403C271.531 206.169 271.879 206.126 272.036 206.309C272.192 206.491 272.096 206.829 271.823 207.063Z" fill="#0C161C"/>
<path d="M269.524 207.235C269.234 207.235 268.884 207.123 268.495 206.829C268.373 206.735 268.349 206.561 268.442 206.437C268.536 206.315 268.71 206.292 268.833 206.384C269.242 206.695 269.627 206.765 269.815 206.568C270.025 206.344 269.987 205.803 269.502 205.243C269.401 205.127 269.413 204.95 269.53 204.849C269.646 204.749 269.822 204.761 269.923 204.878C270.663 205.731 270.596 206.55 270.221 206.949C270.068 207.113 269.828 207.235 269.524 207.235Z" fill="#EA6565"/>
<path d="M267.07 208.539L266.689 208.13C267.112 207.737 267.312 207.428 267.285 207.214C267.243 206.893 266.647 206.573 265.957 206.202L265.888 206.165L266.152 205.674L266.221 205.711C267.081 206.173 267.76 206.537 267.838 207.143C267.891 207.557 267.647 208 267.07 208.539Z" fill="#F93838"/>
<path d="M267.47 203.22C267.523 202.846 267.133 202.329 266.925 202.102C266.73 201.889 266.468 201.676 266.172 201.638C265.795 201.589 265.475 201.844 265.545 202.245C265.649 202.843 266.363 203.5 266.961 203.563C267.14 203.581 267.34 203.515 267.425 203.357C267.449 203.315 267.463 203.268 267.47 203.22Z" fill="#FF5555"/>
<path d="M272.001 209.434C272.31 208.957 271.508 207.709 271.047 207.646C270.125 207.521 271.023 209.955 271.849 209.565C271.916 209.534 271.966 209.489 272.001 209.434Z" fill="#FF5555"/>
<path d="M274.725 203.936C274.706 204.364 274.554 204.713 274.478 205.025C274.439 205.18 274.436 205.301 274.437 205.368C274.44 205.425 274.5 205.524 274.654 205.624L274.493 206.158C274.263 206.144 273.935 206.034 273.748 205.72C273.573 205.417 273.581 205.109 273.616 204.87C273.699 204.383 273.885 203.982 274.227 203.685L274.725 203.936Z" fill="#6D2E03"/>
<path d="M270.131 201.805C270.261 201.996 270.38 202.175 270.496 202.328C270.61 202.482 270.731 202.603 270.833 202.677C270.942 202.747 271.013 202.781 271.136 202.804C271.257 202.836 271.426 202.835 271.644 202.846L271.939 203.5C271.735 203.696 271.45 203.827 271.107 203.849C270.766 203.869 270.382 203.722 270.145 203.484C269.895 203.257 269.757 202.981 269.674 202.72C269.592 202.456 269.568 202.192 269.589 201.934L270.131 201.805Z" fill="#6D2E03"/>
<path d="M194.737 121.93C194.636 122.262 194.374 122.476 194.153 122.408C193.932 122.34 193.836 122.017 193.937 121.685C194.039 121.353 194.3 121.139 194.521 121.207C194.742 121.274 194.839 121.598 194.737 121.93Z" fill="#0C161C"/>
<path d="M198.541 122.768C198.439 123.1 198.178 123.314 197.957 123.246C197.736 123.178 197.639 122.855 197.741 122.523C197.842 122.191 198.103 121.977 198.325 122.045C198.545 122.113 198.642 122.436 198.541 122.768Z" fill="#0C161C"/>
<path d="M195.8 124.912C195.778 124.912 195.755 124.912 195.733 124.912C195.578 124.91 195.455 124.784 195.457 124.629C195.458 124.475 195.568 124.346 195.739 124.354C196.6 124.355 196.936 124.171 196.986 124.003C197.038 123.827 196.847 123.349 195.794 122.671C195.665 122.588 195.627 122.415 195.711 122.286C195.793 122.156 195.966 122.117 196.096 122.202C197.184 122.903 197.689 123.599 197.52 124.164C197.417 124.507 197.033 124.912 195.8 124.912Z" fill="#FF6666"/>
<path d="M195.108 127.144C195.109 127.141 195.401 126.829 195.403 126.827C196.041 125.675 195.765 125.275 193.055 124.633L195.108 127.144Z" fill="white"/>
<path d="M195.101 127.368C195.038 127.368 194.987 127.326 194.946 127.276L192.894 124.765C192.836 124.696 192.83 124.598 192.878 124.521C192.926 124.445 193.014 124.407 193.104 124.429C194.922 124.86 195.61 125.173 195.83 125.671C196.006 126.069 195.816 126.51 195.586 126.928C195.57 126.955 195.57 126.955 195.408 127.128L195.264 127.282C195.229 127.341 195.179 127.363 195.111 127.368C195.108 127.368 195.104 127.368 195.101 127.368ZM193.615 124.988L195.118 126.826L195.246 126.688C195.461 126.289 195.529 126.025 195.448 125.841C195.319 125.549 194.776 125.293 193.615 124.988Z" fill="#F93838"/>
<path d="M193.036 122.678C192.924 122.334 192.369 122.049 192.094 121.94C191.836 121.838 191.52 121.763 191.247 121.855C190.901 121.971 190.731 122.325 190.96 122.643C191.301 123.118 192.195 123.386 192.739 123.189C192.902 123.13 193.047 122.989 193.055 122.817C193.057 122.77 193.05 122.723 193.036 122.678Z" fill="#FF6666"/>
<path d="M200.047 124.274C199.943 123.753 198.715 123.689 198.404 124.025C197.782 124.698 199.782 125.36 200.036 124.472C200.057 124.4 200.059 124.334 200.047 124.274Z" fill="#FF6666"/>
<path d="M192.913 119.536C193.315 119.647 193.725 119.687 194.117 119.664C194.311 119.655 194.495 119.611 194.648 119.568C194.806 119.516 194.888 119.512 195.035 119.45L195.574 119.594C195.578 119.776 195.503 119.982 195.383 120.114C195.265 120.256 195.123 120.346 194.98 120.415C194.692 120.54 194.404 120.564 194.13 120.564C193.584 120.544 193.047 120.37 192.631 120.016L192.913 119.536Z" fill="#0C161C"/>
<path d="M198.466 120.124C198.655 120.373 198.836 120.633 199.041 120.886C199.254 121.135 199.47 121.351 199.747 121.531L199.67 122.083C199.411 122.117 199.148 122.058 198.924 121.951C198.698 121.843 198.499 121.693 198.336 121.515C198.168 121.341 198.038 121.132 197.949 120.902C197.866 120.67 197.826 120.401 197.908 120.124H198.466Z" fill="#0C161C"/>
<path d="M189.934 126.258L186.386 130.852C185.936 131.429 185.061 131.398 184.654 130.791L184.563 130.651L177.454 120.055C177.175 119.636 177.223 119.077 177.576 118.718L181.385 114.799C181.422 114.763 181.458 114.727 181.501 114.702C181.968 114.332 182.673 114.429 183.026 114.939L189.97 125.001C190.232 125.383 190.22 125.894 189.934 126.258Z" fill="#0C161C"/>
<path d="M191.684 126.41L188.13 131.003C187.686 131.581 185.159 131.641 184.758 131.034L184.563 130.651L184.655 130.791C185.062 131.398 185.937 131.428 186.386 130.851L189.935 126.258C190.22 125.893 190.232 125.383 189.971 125L183.026 114.939C182.674 114.428 181.969 114.331 181.501 114.701C182.397 113.922 183.85 114.154 184.77 115.09L191.721 125.152C191.982 125.535 191.97 126.046 191.684 126.41Z" fill="#587893"/>
<path d="M205.664 241.402C201.022 245.763 194.377 249.177 190.14 248.71C188.819 248.563 187.726 248.035 187.008 247.046C182.881 241.39 197.546 231.816 198.449 231.208C199.112 233.394 200.089 235.39 201.397 237.177C202.551 238.749 203.969 240.168 205.664 241.402Z" fill="#435460"/>
<path d="M244.805 224.862C244.421 225.666 243.797 226.458 242.97 227.227C239.522 230.489 232.613 233.454 225.664 235.831C216.606 238.924 207.485 240.998 205.906 241.347C205.749 241.382 205.667 241.399 205.667 241.399C205.184 241.05 204.723 240.683 204.286 240.304C204.088 240.135 203.896 239.961 203.71 239.786C201.776 237.974 200.325 235.865 199.294 233.495C198.968 232.755 198.688 231.992 198.45 231.206C201.863 228.917 205.97 226.522 210.315 224.326C210.327 224.326 210.338 224.321 210.344 224.315C225.582 216.643 243.733 211.512 245.207 222.608C245.306 223.371 245.166 224.123 244.805 224.862Z" fill="#05028D"/>
<path d="M224.971 232.901L224.086 235.819L223.696 237.106L222.129 242.29C220.265 241.836 218.453 241.3 216.712 240.671C214.253 239.797 211.935 238.755 209.844 237.549C207.164 235.994 204.834 234.17 203.035 232.067C197.408 226.522 201.281 226.959 202.877 227.518C201.689 224.833 203.07 223.179 205.225 225.637C204.445 223.598 205.359 221.518 207.735 223.912C205.895 220.93 207.281 218.145 213.252 226.737C214.853 221.64 214.918 221.978 217.457 229.557L224.971 232.901Z" fill="url(#paint13_linear_168_2361)"/>
<path opacity="0.58" d="M205.664 241.402C201.022 245.762 194.377 249.177 190.14 248.71L201.396 237.177C202.551 238.749 203.969 240.168 205.664 241.402Z" fill="#435460"/>
<path d="M267.782 199.213C267.782 199.213 271.22 201.285 272.347 201.242C272.894 201.221 273.506 200.228 273.506 200.228C273.506 200.228 273.651 202.546 274.955 202.981C276.223 203.403 276.839 202.256 276.839 202.256L274.014 197.981L267.782 199.213Z" fill="#6D2E03"/>
<path d="M173.739 236.51C173.645 236.51 173.563 236.448 173.537 236.357L171.207 228.007C171.191 227.951 171.2 227.891 171.23 227.841C171.26 227.792 171.31 227.758 171.367 227.746C177.386 226.533 183.056 224.838 188.221 222.71C188.273 222.688 188.331 222.688 188.383 222.711C188.435 222.733 188.475 222.775 188.496 222.828L191.796 231.37C191.831 231.46 191.8 231.563 191.721 231.618C187.27 234.7 181.389 236.3 173.743 236.51C173.742 236.51 173.74 236.51 173.739 236.51ZM171.671 228.111L173.896 236.087C181.301 235.864 187.013 234.32 191.347 231.367L188.183 223.177C183.11 225.253 177.557 226.912 171.671 228.111Z" fill="#D6E3F3"/>
<path d="M182.23 152.964C179.664 156.762 176.346 158.787 172.827 159.221C168.282 159.79 163.408 157.693 159.404 153.326C155.215 148.754 151.981 141.682 151.066 132.558C153.749 129.374 156.928 126.792 160.592 124.801C161.155 124.494 161.73 124.198 162.315 123.919C163.932 123.139 165.633 122.475 167.418 121.906L169.397 135.274L169.654 136.992L171.12 146.913L171.717 144.961L179.385 150.8L182.23 152.964Z" fill="#DE0201"/>
<path d="M188.216 126.542C188.004 128.31 187.686 130.479 187.262 133.067C187.218 135.203 187.078 137.205 186.85 139.062C186.66 140.596 186.409 142.04 186.102 143.395C185.707 145.18 185.216 146.808 184.641 148.28C183.95 150.065 183.136 151.627 182.226 152.965L171.714 144.962L171.764 144.789L172.684 141.789L176.666 128.745C176.304 124.261 176.192 121.417 176.292 120.017C176.404 118.634 176.716 118.656 177.218 119.906C177.631 120.932 178.177 122.8 178.83 125.399C179.466 122.99 180.023 121.038 180.497 119.643C181.557 116.476 182.159 116.119 182.142 119.576C182.142 120 182.131 120.474 182.109 121.01C182.265 120.475 182.416 119.989 182.55 119.56C183.604 116.358 184.206 116.23 184.144 120.586C184.144 120.848 184.139 121.127 184.128 121.422C184.195 121.221 184.256 121.026 184.317 120.842C185.667 116.827 186.542 116.029 186.219 123.519C188.316 118.901 189.047 119.66 188.216 126.542Z" fill="url(#paint14_linear_168_2361)"/>
<path d="M185.383 148.682L183.013 153.561L182.226 152.965L171.714 144.962L170.744 144.22L172.277 141.571L172.684 141.788L177.274 144.281L184.641 148.28L185.383 148.682Z" fill="#FC201F"/>
<path d="M265.62 211.693L262.165 212.747L261.267 213.02L263.116 209.362C263.116 209.374 263.122 209.386 263.128 209.397C263.226 209.664 263.354 209.913 263.51 210.145C263.916 210.765 264.501 211.252 265.197 211.536C265.209 211.541 265.226 211.547 265.238 211.553C265.365 211.6 265.493 211.646 265.62 211.693Z" fill="#FF926C"/>
<path d="M224.173 233.291L223.696 237.106L222.129 242.291C220.265 241.836 218.453 241.3 216.712 240.671L224.173 233.291Z" fill="#FF926C"/>
<path d="M226.581 231.312L226.385 232.44L224.598 242.523L224.327 244.067L220.231 242.676L220.526 241.562L223.369 230.923L223.51 230.387L226.581 231.312Z" fill="#DE0201"/>
<path d="M226.321 231.263L224.068 244.02L224.617 244.116L226.87 231.36L226.321 231.263Z" fill="white"/>
<path d="M140.629 175.382C140.517 175.382 140.425 175.293 140.42 175.181L140.281 171.556C140.278 171.474 140.322 171.398 140.395 171.361C140.467 171.325 140.555 171.333 140.619 171.383L143.826 173.892C143.917 173.963 143.933 174.095 143.861 174.186C143.791 174.276 143.66 174.293 143.568 174.222L140.717 171.99L140.839 175.164C140.843 175.28 140.753 175.377 140.638 175.381C140.635 175.382 140.632 175.382 140.629 175.382Z" fill="white"/>
<path d="M186.928 181.852L186.509 181.833C186.798 175.171 186.561 167.202 182.129 164.712C178.703 162.784 173.035 164.441 165.284 169.63L165.051 169.282C173.055 163.923 178.708 162.309 182.334 164.347C186.963 166.949 187.221 175.069 186.928 181.852Z" fill="white"/>
<path d="M201.281 240.913L198.547 236.828L198.894 236.595L201.629 240.68L201.281 240.913Z" fill="white"/>
<path d="M197.527 237.527L197.179 237.76L199.914 241.845L200.262 241.612L197.527 237.527Z" fill="white"/>
<path d="M196.161 238.441L195.813 238.674L198.548 242.759L198.896 242.527L196.161 238.441Z" fill="white"/>
<path d="M132.688 234.843L132.297 234.99L133.821 239.037L134.212 238.89L132.688 234.843Z" fill="white"/>
<path d="M131.156 235.412L130.765 235.56L132.289 239.607L132.68 239.46L131.156 235.412Z" fill="white"/>
<path d="M129.622 236.001L129.231 236.148L130.755 240.196L131.146 240.048L129.622 236.001Z" fill="white"/>
<path d="M120.247 179.604L118.535 179.843L118.592 180.257L120.305 180.018L120.247 179.604Z" fill="white"/>
<path d="M118.82 181.817L118.762 181.403L120.474 181.162L120.531 181.576L118.82 181.817Z" fill="white"/>
<path d="M119.039 183.374L118.981 182.96L120.693 182.72L120.75 183.134L119.039 183.374Z" fill="white"/>
<path d="M196.677 182.985L196.317 182.773L197.627 180.556L197.988 180.768L196.677 182.985Z" fill="white"/>
<path d="M198.033 183.787L197.673 183.575L198.983 181.357L199.344 181.57L198.033 183.787Z" fill="white"/>
<path d="M199.388 184.587L199.027 184.375L200.338 182.158L200.698 182.37L199.388 184.587Z" fill="white"/>
<path d="M60.9766 172.925H59.3036V201.785H60.9766V172.925Z" fill="#587893"/>
<path d="M75.1627 186.925H73.4896V215.785H75.1627V186.925Z" fill="#587893"/>
<path d="M89.3482 200.924H87.6751V229.784H89.3482V200.924Z" fill="#587893"/>
<path d="M103.535 214.924H101.861V243.784H103.535V214.924Z" fill="#587893"/>
<path d="M112.284 255.462H6.60211V252.674H108.918L46.0486 189.805L48.02 187.833L113.269 253.082C113.668 253.481 113.787 254.081 113.572 254.602C113.356 255.122 112.847 255.462 112.284 255.462Z" fill="#A7BDD3"/>
<path d="M113.12 227.299H7.43866V224.511H109.754L46.8852 161.641L48.8566 159.67L114.106 224.919C114.505 225.318 114.624 225.917 114.408 226.438C114.192 226.959 113.684 227.299 113.12 227.299Z" fill="#A7BDD3"/>
<path d="M25.0057 226.965H23.3326V252.758H25.0057V226.965Z" fill="#587893"/>
<path d="M49.0326 226.965H47.3595V252.758H49.0326V226.965Z" fill="#587893"/>
<path d="M73.06 226.965H71.387V252.758H73.06V226.965Z" fill="#587893"/>
<path d="M97.0866 226.965H95.4136V252.758H97.0866V226.965Z" fill="#587893"/>
<path d="M10.0472 223.758H5.49945V228.306H10.0472V223.758Z" fill="#587893"/>
<path d="M50.6787 189.209L47.463 185.993L44.2472 189.209L47.4629 192.425L50.6787 189.209Z" fill="#587893"/>
<path d="M51.2876 160.789L48.0718 157.573L44.8561 160.789L48.0718 164.005L51.2876 160.789Z" fill="#587893"/>
<path d="M9.71253 251.795H5.16473V256.343H9.71253V251.795Z" fill="#587893"/>
<path d="M207.515 114.997C205.155 118.412 202.994 119.328 197.496 116.182C197.035 115.916 196.476 115.754 195.853 115.669C195.828 115.665 195.809 115.658 195.785 115.654C193.372 115.331 189.997 116.108 187.417 116.664C185.922 112.325 187.828 103.32 195.735 104.054C197.3 104.201 198.635 104.77 199.772 105.541C203.229 107.866 204.923 112.013 205.897 111.728C205.897 111.728 209.123 112.668 207.515 114.997Z" fill="#05028D"/>
<path d="M171.715 149.101C171.625 149.101 171.542 149.043 171.514 148.952L171.014 147.295L169.12 149.046C169.035 149.123 168.902 149.118 168.824 149.034C168.745 148.949 168.751 148.817 168.835 148.739L170.975 146.761C171.029 146.713 171.106 146.695 171.173 146.713C171.242 146.732 171.297 146.785 171.318 146.855L171.915 148.832C171.948 148.942 171.885 149.059 171.775 149.092C171.755 149.098 171.735 149.101 171.715 149.101Z" fill="white"/>
<path d="M132.73 264.73V304.047L116.828 284.617C116.828 284.617 117.683 281.814 118.362 281.154C121.046 278.544 122.108 277.024 119.563 273.167C117.562 269.338 116.624 265.837 120.949 263.955C124.796 262.28 124.227 256.698 122.97 250.509L124.253 252.383L132.73 264.73Z" fill="#CC9B7A"/>
<path d="M175.532 263.755L143.873 264.474L138.619 264.597L132.73 264.731L122.971 250.51C122.971 250.51 126.618 249.913 130.539 249.673C131.704 249.606 132.898 249.572 134.024 249.589C136.171 249.628 138.09 249.879 139.144 250.51C140.772 251.485 142.116 252.071 143.259 252.383C146.271 253.203 147.866 252.093 149.561 251.19C150.52 250.677 151.507 250.231 152.807 250.231C156.538 250.231 156.164 252.21 157.726 252.294C158.412 252.333 159.471 252.004 161.429 250.972C161.696 250.833 161.981 250.677 162.288 250.51L175.532 263.755Z" fill="#EFCEB4"/>
<path d="M176.508 304.047H132.73V264.731L151.691 264.295L166.61 263.955L169.766 263.889L175.532 263.755L175.795 274.518L176.508 304.047Z" fill="#EFCEB4"/>
<path d="M132.73 264.73V296.92L124.253 252.383L132.73 264.73Z" fill="url(#paint15_linear_168_2361)"/>
<path d="M149.561 251.189L161.172 259.638L143.259 252.383C146.271 253.203 147.866 252.093 149.561 251.189Z" fill="#EFCEB4"/>
<path d="M166.888 261.808L157.726 252.294C158.411 252.333 159.471 252.004 161.428 250.973L166.888 261.808Z" fill="#EFCEB4"/>
<path d="M166.61 263.955L149.834 304.047H141.341L151.691 264.295L166.61 263.955ZM175.532 263.755L169.766 263.889L153.398 304.048H157.737C162.594 295.972 169.805 284.233 175.795 274.518L175.532 263.755Z" fill="url(#paint16_linear_168_2361)"/>
<path d="M137.445 281.281H136.864V288.848H137.445V281.281Z" fill="#CC9B7A"/>
<path d="M144.819 284.617V283.373H138.426V282.501H144.819V281.281L147.58 282.949L144.819 284.617Z" fill="#CC9B7A"/>
<path d="M144.819 288.772V287.529H138.426V286.657H144.819V285.437L147.58 287.105L144.819 288.772Z" fill="#CC9B7A"/>
<path d="M140.71 295.63H137.592V297.481H136.72V292.794H137.592V294.759H140.71C140.92 293.32 142.16 292.213 143.657 292.213H147.58V294.296L146.38 293.631L145.784 294.357L144.276 293.631L145.624 295.142L146.659 294.91L147.252 295.52H147.58V298.17H143.657C142.16 298.17 140.922 297.069 140.71 295.63Z" fill="#CC9B7A"/>
<path d="M122.655 184.935C120.222 178.189 120.109 171.92 122.307 165.768L122.702 165.908C120.536 171.965 120.65 178.142 123.048 184.794L122.655 184.935Z" fill="white"/>
<path d="M137.638 223.128H137.22V238.094H137.638V223.128Z" fill="#D6E3F3"/>
<path d="M186.102 143.396C185.707 145.18 185.216 146.808 184.641 148.281L177.274 144.282C180.213 143.981 183.158 143.657 186.102 143.396Z" fill="#FF926C"/>
<path d="M290.196 244.176L290.152 244.215C286.939 242.748 284.709 241.003 283.326 239.257C283.32 239.251 283.32 239.251 283.32 239.246C281.87 237.428 281.346 235.632 281.597 234.193C283.376 236.34 285.517 237.997 287.932 239.53C288.088 241.17 288.942 242.754 290.196 244.176Z" fill="#2320AB"/>
<path d="M254.69 217.528C253.472 217.528 252.233 217.238 251.05 216.652C250.955 216.604 250.911 216.492 250.948 216.392L251.722 214.297L249.489 214.114C249.415 214.108 249.35 214.063 249.317 213.996C247.749 210.722 248.592 205.97 251.156 203.618C251.241 203.54 251.373 203.546 251.451 203.631C251.529 203.716 251.524 203.849 251.439 203.926C249.068 206.1 248.244 210.639 249.644 213.707L252.031 213.902C252.096 213.907 252.155 213.943 252.19 213.998C252.225 214.053 252.232 214.122 252.21 214.183L251.406 216.359C253.992 217.573 256.838 217.305 259.052 215.632C259.144 215.562 259.276 215.58 259.345 215.673C259.415 215.765 259.396 215.896 259.304 215.965C257.931 217.002 256.33 217.528 254.69 217.528Z" fill="white"/>
<path d="M277.064 199.039L274.436 198.25L274.516 197.983L277.145 198.773L277.064 199.039Z" fill="#FF9327"/>
<path d="M274.445 199.755L274.196 199.881L275.236 201.926L275.485 201.8L274.445 199.755Z" fill="#FF9327"/>
<path d="M276.928 202.157L276.733 202.356L278.64 204.224L278.836 204.025L276.928 202.157Z" fill="#FF9327"/>
<path d="M271.064 198.278C270.227 197.309 269.432 197.138 268.634 197.76L268.463 197.541C269.389 196.82 270.335 197.007 271.276 198.097L271.064 198.278Z" fill="#FF9327"/>
<path d="M282.74 197.846C282.497 197.846 282.274 197.686 282.204 197.44C282.12 197.144 282.293 196.836 282.589 196.752L289.455 194.804C289.748 194.718 290.059 194.892 290.143 195.189C290.227 195.485 290.055 195.793 289.759 195.878L282.892 197.825C282.842 197.839 282.791 197.846 282.74 197.846Z" fill="#587893"/>
<path d="M279.077 193.256C278.957 193.256 278.837 193.217 278.735 193.138C278.492 192.949 278.449 192.598 278.638 192.355L281.166 189.111C281.355 188.867 281.705 188.824 281.948 189.013C282.191 189.203 282.235 189.553 282.046 189.796L279.518 193.041C279.408 193.182 279.243 193.256 279.077 193.256Z" fill="#587893"/>
<path d="M289.607 203.901H283.99C283.682 203.901 283.432 203.652 283.432 203.344C283.432 203.036 283.682 202.786 283.99 202.786H289.607C289.915 202.786 290.165 203.036 290.165 203.344C290.165 203.652 289.916 203.901 289.607 203.901Z" fill="#587893"/>
<path d="M205.897 111.728C201.103 116.165 197.051 111.912 188.205 114.259C194.675 111.738 200.672 110.588 199.772 105.541C203.229 107.866 204.923 112.013 205.897 111.728Z" fill="#2320AB"/>
<path d="M200.973 162.039C200.483 167.014 199.25 173.159 197.237 180.566L190.522 181.38C194.253 175.017 197.7 168.648 200.973 162.039Z" fill="url(#paint17_linear_168_2361)"/>
<path d="M150.079 133.793C148.518 139.387 147.586 145.159 147.48 150.942C145.891 150.685 144.245 150.468 142.556 150.328C144.156 143.72 146.677 138.221 150.079 133.793Z" fill="#05028D"/>
<path d="M244.179 199.92L219.93 209.333L223.145 211.768L220.466 214.261L213.237 220.983C212.614 220.377 212.048 219.772 211.536 219.166C207.342 214.29 206.241 209.491 207.377 205.395C210.027 195.802 224.939 190.076 240.969 196.314C242.833 197.043 244.709 197.928 246.585 198.988L244.179 199.92Z" fill="#DE0201"/>
<path d="M226.372 213.394L225.936 213.873L216.718 223.993L216.651 224.067L212.812 221.377L213.236 220.984L223.142 211.766L223.867 211.091L226.372 213.394Z" fill="#DE0201"/>
<path d="M236.988 223.243C238.578 224.221 240.122 226.685 240.466 227.495C241.106 229.027 239.784 229.848 237.629 228.357C237.53 228.293 237.431 228.223 237.332 228.147C237.407 228.217 237.477 228.299 237.541 228.374C239.592 230.721 237.273 231.997 235.293 229.714C236.446 232.062 236.173 233.448 232.783 231.753C234.07 235.178 231.565 234.124 227.231 230.949C226.468 230.39 225.653 229.766 224.791 229.091C222.734 228.002 220.882 226.901 219.216 225.782C218.33 225.188 217.498 224.594 216.717 223.994L217.329 223.33L223.55 216.497L224.36 215.612L225.938 213.87L234.035 219.998C241.612 220.394 246.117 219.276 236.988 223.243Z" fill="url(#paint18_linear_168_2361)"/>
<path d="M217.766 210.782C217.676 210.782 217.592 210.724 217.565 210.633C217.532 210.523 217.595 210.406 217.706 210.373L220.272 209.604L217.767 207.231C217.683 207.151 217.679 207.019 217.759 206.935C217.839 206.851 217.971 206.849 218.054 206.927L220.822 209.548C220.876 209.599 220.899 209.676 220.882 209.749C220.864 209.821 220.81 209.879 220.738 209.901L217.825 210.774C217.806 210.78 217.785 210.782 217.766 210.782Z" fill="white"/>
<path d="M223.55 216.497L219.216 225.782C218.331 225.188 217.498 224.594 216.717 223.994L217.329 223.33L223.55 216.497Z" fill="#FF926C"/>
<path d="M223.708 210.938L212.664 221.234L212.95 221.541L223.994 211.244L223.708 210.938Z" fill="white"/>
<path d="M206.827 241.272C203.893 238.943 201.333 235.442 199.215 230.865L199.595 230.689C201.685 235.206 204.205 238.656 207.087 240.944L206.827 241.272Z" fill="#D6E3F3"/>
<path d="M197.416 179.598L180.113 181.642L180.162 182.057L197.465 180.013L197.416 179.598Z" fill="white"/>
<path d="M182.229 152.967C179.664 156.764 176.346 158.789 172.827 159.224C174.355 157.969 175.771 156.58 176.904 154.98C177.857 153.63 178.699 152.264 179.385 150.803L182.229 152.967Z" fill="#05028D"/>
<path d="M170.871 144.065L170.617 144.398L182.886 153.74L183.139 153.407L170.871 144.065Z" fill="white"/>
<path d="M345.224 193.26C344.182 194.738 343.976 196.176 345.051 197.539L342.564 199.639L337.903 203.584L337.504 203.916L337.493 203.926L331.936 208.62L333.458 170.945L335.559 169.499L343.947 163.721L346.487 161.972L345.73 180.725C343.076 183.705 343.111 186.229 345.421 188.371C347.273 189.575 346.924 191.271 345.224 193.26Z" fill="#EFCEB4"/>
<path d="M346.491 161.974L338.337 167.59L335.153 169.782L333.458 170.947L312.561 168.901L296.661 167.345L313.749 159.147L314.418 158.829L324.808 159.85L337.813 161.121L346.491 161.974Z" fill="#CC9B7A"/>
<path d="M345.224 193.26C344.182 194.738 343.976 196.176 345.051 197.539L342.564 199.639L337.903 203.584C337.772 203.694 337.64 203.81 337.503 203.931L337.504 203.916C338.983 191.878 341.368 179.878 343.282 167.901C343.502 166.506 343.727 165.116 343.947 163.721L346.487 161.972L345.73 180.725C343.076 183.705 343.111 186.229 345.421 188.371C347.273 189.575 346.924 191.271 345.224 193.26Z" fill="url(#paint19_linear_168_2361)"/>
<path d="M333.459 170.945L331.936 208.62L293.335 203.893C293.335 203.893 293.681 203.031 294.175 201.784L294.175 201.779C294.898 199.951 295.924 197.29 296.603 195.248C296.862 194.451 297.075 193.747 297.197 193.23C297.318 192.707 297.325 192.264 297.251 191.876C297.024 190.7 296.048 190.059 295.358 189.35C294.811 188.785 294.445 188.168 294.802 187.196C295.454 185.406 297.017 184.219 298.491 183.149C300.019 182.044 301.452 181.068 301.702 179.69C302.03 177.861 301.239 176.805 300.19 175.723C299.496 175.009 298.691 174.285 298.017 173.323C297.079 171.992 296.402 170.202 296.66 167.347L316.737 169.309L333.459 170.945Z" fill="#EFCEB4"/>
<path d="M333.459 170.945L332.926 184.124C328.8 180.299 322.328 174.327 316.736 169.309L333.459 170.945ZM298.49 183.149L320.686 186.616L300.19 175.718L300.189 175.723C301.238 176.805 302.029 177.861 301.702 179.69C301.451 181.068 300.018 182.044 298.49 183.149ZM297.251 191.876C297.325 192.264 297.318 192.707 297.196 193.23C297.075 193.748 296.862 194.452 296.603 195.249C295.924 197.29 294.898 199.951 294.175 201.779L332.573 192.86L332.698 189.762L297.251 191.876Z" fill="url(#paint20_linear_168_2361)"/>
<path d="M324.155 172.522L324.116 172.98L330.079 173.482L330.117 173.024L324.155 172.522Z" fill="#CC9B7A"/>
<path d="M326.971 179.09L327.951 179.172L328.376 174.135L329.063 174.193L328.638 179.23L329.6 179.311L328.103 181.376L326.971 179.09Z" fill="#CC9B7A"/>
<path d="M323.697 178.815L324.677 178.897L325.101 173.859L325.788 173.917L325.364 178.955L326.325 179.036L324.828 181.101L323.697 178.815Z" fill="#CC9B7A"/>
<path d="M318.565 175.121L318.772 172.663L317.314 172.541L317.372 171.854L321.065 172.165L321.008 172.852L319.46 172.721L319.252 175.178C320.372 175.439 321.162 176.49 321.063 177.67L320.802 180.761L319.16 180.622L319.764 179.721L319.232 179.203L319.904 178.063L318.624 179.025L318.738 179.856L318.218 180.282L318.196 180.541L316.108 180.365L316.368 177.274C316.468 176.095 317.418 175.192 318.565 175.121Z" fill="#CC9B7A"/>
<path d="M136.159 232.747C135.652 230.856 135.089 228.983 134.464 227.126C134.051 225.888 133.471 224.611 132.886 223.311L136.053 223.127L136.159 232.747Z" fill="url(#paint21_linear_168_2361)"/>
<path d="M119.861 178.725C125.945 182.584 132.459 185.545 139.408 187.609C133.424 187.163 127.245 185.741 121.807 184.653C120.893 182.478 120.268 180.509 119.861 178.725Z" fill="url(#paint22_linear_168_2361)"/>
</g>
<defs>
<linearGradient id="paint0_linear_168_2361" x1="215.016" y1="55.8392" x2="206.766" y2="102.497" gradientUnits="userSpaceOnUse">
<stop offset="0.3237" stop-color="#D6E3F3"/>
<stop offset="1" stop-color="#A7BDD3"/>
</linearGradient>
<linearGradient id="paint1_linear_168_2361" x1="189.943" y1="127.27" x2="109.894" y2="203.737" gradientUnits="userSpaceOnUse">
<stop offset="0.3237" stop-color="#D6E3F3"/>
<stop offset="1" stop-color="#A7BDD3"/>
</linearGradient>
<linearGradient id="paint2_linear_168_2361" x1="225.54" y1="79.7088" x2="245.438" y2="79.7088" gradientUnits="userSpaceOnUse">
<stop stop-color="#EFCEB4"/>
<stop offset="1" stop-color="#EFCEB4"/>
</linearGradient>
<linearGradient id="paint3_linear_168_2361" x1="140.214" y1="84.7941" x2="148.947" y2="84.7941" gradientUnits="userSpaceOnUse">
<stop stop-color="#EFCEB4"/>
<stop offset="1" stop-color="#EFCEB4"/>
</linearGradient>
<linearGradient id="paint4_linear_168_2361" x1="161.59" y1="83.0871" x2="175.086" y2="83.0871" gradientUnits="userSpaceOnUse">
<stop stop-color="#EFCEB4"/>
<stop offset="1" stop-color="#EFCEB4"/>
</linearGradient>
<linearGradient id="paint5_linear_168_2361" x1="232.639" y1="43.4694" x2="239.103" y2="43.4694" gradientUnits="userSpaceOnUse">
<stop stop-color="#EFCEB4"/>
<stop offset="1" stop-color="#EFCEB4"/>
</linearGradient>
<linearGradient id="paint6_linear_168_2361" x1="191.891" y1="75.9327" x2="235.3" y2="75.9327" gradientUnits="userSpaceOnUse">
<stop stop-color="#EFCEB4"/>
<stop offset="1" stop-color="#EFCEB4"/>
</linearGradient>
<linearGradient id="paint7_linear_168_2361" x1="182.732" y1="126.575" x2="193.673" y2="126.575" gradientUnits="userSpaceOnUse">
<stop offset="0.4246" stop-color="#FF926C"/>
<stop offset="1" stop-color="#FF6666"/>
</linearGradient>
<linearGradient id="paint8_linear_168_2361" x1="220.73" y1="171.235" x2="207.701" y2="185.385" gradientUnits="userSpaceOnUse">
<stop offset="0.6243" stop-color="#FF926C"/>
<stop offset="1" stop-color="#FF6666"/>
</linearGradient>
<linearGradient id="paint9_linear_168_2361" x1="194.195" y1="125.313" x2="194.598" y2="117.453" gradientUnits="userSpaceOnUse">
<stop offset="0.4246" stop-color="#FF926C"/>
<stop offset="1" stop-color="#FF6666"/>
</linearGradient>
<linearGradient id="paint10_linear_168_2361" x1="66.5322" y1="208.367" x2="116.785" y2="232.168" gradientUnits="userSpaceOnUse">
<stop offset="0.2137" stop-color="#A7BDD3"/>
<stop offset="1" stop-color="#587893"/>
</linearGradient>
<linearGradient id="paint11_linear_168_2361" x1="260.006" y1="198.185" x2="257.684" y2="212.246" gradientUnits="userSpaceOnUse">
<stop offset="0.7292" stop-color="#FF926C"/>
<stop offset="1" stop-color="#FF6666"/>
</linearGradient>
<linearGradient id="paint12_linear_168_2361" x1="269.302" y1="205.324" x2="270.712" y2="211.458" gradientUnits="userSpaceOnUse">
<stop offset="0.4246" stop-color="#FF926C"/>
<stop offset="1" stop-color="#FF6666"/>
</linearGradient>
<linearGradient id="paint13_linear_168_2361" x1="217.429" y1="225.157" x2="208.182" y2="239.577" gradientUnits="userSpaceOnUse">
<stop offset="0.4246" stop-color="#FF926C"/>
<stop offset="1" stop-color="#FF6666"/>
</linearGradient>
<linearGradient id="paint14_linear_168_2361" x1="173.794" y1="132.531" x2="190.011" y2="137.061" gradientUnits="userSpaceOnUse">
<stop offset="0.4246" stop-color="#FF926C"/>
<stop offset="1" stop-color="#FF6666"/>
</linearGradient>
<linearGradient id="paint15_linear_168_2361" x1="124.253" y1="274.651" x2="132.73" y2="274.651" gradientUnits="userSpaceOnUse">
<stop stop-color="#EFCEB4"/>
<stop offset="1" stop-color="#EFCEB4"/>
</linearGradient>
<linearGradient id="paint16_linear_168_2361" x1="141.341" y1="283.901" x2="175.795" y2="283.901" gradientUnits="userSpaceOnUse">
<stop stop-color="#EFCEB4"/>
<stop offset="1" stop-color="#EFCEB4"/>
</linearGradient>
<linearGradient id="paint17_linear_168_2361" x1="181.321" y1="171.709" x2="200.869" y2="171.709" gradientUnits="userSpaceOnUse">
<stop offset="0.1401" stop-color="#32657C"/>
<stop offset="1" stop-color="#1B3F49"/>
</linearGradient>
<linearGradient id="paint18_linear_168_2361" x1="221.777" y1="231.653" x2="236.201" y2="218.626" gradientUnits="userSpaceOnUse">
<stop offset="0.4246" stop-color="#FF926C"/>
<stop offset="1" stop-color="#FF6666"/>
</linearGradient>
<linearGradient id="paint19_linear_168_2361" x1="337.504" y1="182.952" x2="346.662" y2="182.952" gradientUnits="userSpaceOnUse">
<stop stop-color="#EFCEB4"/>
<stop offset="1" stop-color="#EFCEB4"/>
</linearGradient>
<linearGradient id="paint20_linear_168_2361" x1="294.175" y1="185.544" x2="333.459" y2="185.544" gradientUnits="userSpaceOnUse">
<stop stop-color="#EFCEB4"/>
<stop offset="1" stop-color="#EFCEB4"/>
</linearGradient>
<linearGradient id="paint21_linear_168_2361" x1="132.886" y1="227.937" x2="136.159" y2="227.937" gradientUnits="userSpaceOnUse">
<stop offset="0.2137" stop-color="#72A2AF"/>
<stop offset="1" stop-color="#476572"/>
</linearGradient>
<linearGradient id="paint22_linear_168_2361" x1="139.385" y1="172.7" x2="126.061" y2="187.003" gradientUnits="userSpaceOnUse">
<stop offset="0.2137" stop-color="#A7BDD3"/>
<stop offset="1" stop-color="#587893"/>
</linearGradient>
<clipPath id="clip0_168_2361">
<rect width="358" height="328.167" fill="white"/>
</clipPath>
</defs>
</svg>
