<svg width="20" height="20" viewBox="0 0 20 20" fill="none" xmlns="http://www.w3.org/2000/svg">
<path d="M10 17.5C10 17.721 9.9122 17.933 9.75592 18.0893C9.59964 18.2455 9.38768 18.3333 9.16667 18.3333H4.16667C1.86917 18.3333 0 16.4642 0 14.1667V4.16667C0 1.86917 1.86917 0 4.16667 0H14.1667C16.4642 0 18.3333 1.86917 18.3333 4.16667V9.16667C18.3333 9.38768 18.2455 9.59964 18.0893 9.75592C17.933 9.9122 17.721 10 17.5 10C17.279 10 17.067 9.9122 16.9107 9.75592C16.7545 9.59964 16.6667 9.38768 16.6667 9.16667V4.16667C16.6667 2.78833 15.545 1.66667 14.1667 1.66667H4.16667C2.78833 1.66667 1.66667 2.78833 1.66667 4.16667V9.96583L4.00667 7.62583C4.62118 7.01223 5.45409 6.66758 6.3225 6.66758C7.19091 6.66758 8.02382 7.01223 8.63833 7.62583L13.0892 12.0767C13.2454 12.2329 13.3332 12.4449 13.3332 12.6658C13.3332 12.8868 13.2454 13.0987 13.0892 13.255C12.9329 13.4113 12.721 13.499 12.5 13.499C12.279 13.499 12.0671 13.4113 11.9108 13.255L7.46 8.80417C7.15782 8.50342 6.74884 8.33458 6.3225 8.33458C5.89616 8.33458 5.48718 8.50342 5.185 8.80417L1.66667 12.3225V14.1667C1.66667 15.545 2.78833 16.6667 4.16667 16.6667H9.16667C9.38768 16.6667 9.59964 16.7545 9.75592 16.9107C9.9122 17.067 10 17.279 10 17.5ZM12.5 2.91667C13.8783 2.91667 15 4.03833 15 5.41667C15 6.795 13.8783 7.91667 12.5 7.91667C11.1217 7.91667 10 6.795 10 5.41667C10 4.03833 11.1217 2.91667 12.5 2.91667ZM12.5 4.58333C12.2854 4.59293 12.0828 4.68492 11.9344 4.84015C11.786 4.99538 11.7031 5.20189 11.7031 5.41667C11.7031 5.63145 11.786 5.83795 11.9344 5.99318C12.0828 6.14841 12.2854 6.2404 12.5 6.25C12.7146 6.2404 12.9172 6.14841 13.0656 5.99318C13.214 5.83795 13.2969 5.63145 13.2969 5.41667C13.2969 5.20189 13.214 4.99538 13.0656 4.84015C12.9172 4.68492 12.7146 4.59293 12.5 4.58333ZM19.1667 15H16.6667V12.5C16.6667 12.279 16.5789 12.067 16.4226 11.9107C16.2663 11.7545 16.0543 11.6667 15.8333 11.6667C15.6123 11.6667 15.4004 11.7545 15.2441 11.9107C15.0878 12.067 15 12.279 15 12.5V15H12.5C12.279 15 12.067 15.0878 11.9107 15.2441C11.7545 15.4004 11.6667 15.6123 11.6667 15.8333C11.6667 16.0543 11.7545 16.2663 11.9107 16.4226C12.067 16.5789 12.279 16.6667 12.5 16.6667H15V19.1667C15 19.3877 15.0878 19.5996 15.2441 19.7559C15.4004 19.9122 15.6123 20 15.8333 20C16.0543 20 16.2663 19.9122 16.4226 19.7559C16.5789 19.5996 16.6667 19.3877 16.6667 19.1667V16.6667H19.1667C19.3877 16.6667 19.5996 16.5789 19.7559 16.4226C19.9122 16.2663 20 16.0543 20 15.8333C20 15.6123 19.9122 15.4004 19.7559 15.2441C19.5996 15.0878 19.3877 15 19.1667 15Z" fill="#475467"/>
</svg>
