<svg width="20" height="20" viewBox="0 0 20 20" fill="none" xmlns="http://www.w3.org/2000/svg">
<path d="M17.5 10H15C14.0808 10 13.3333 10.7475 13.3333 11.6667C13.3333 12.5858 12.5858 13.3333 11.6667 13.3333H8.33333C7.41417 13.3333 6.66667 12.5858 6.66667 11.6667C6.66667 10.7475 5.91917 10 5 10H2.5C1.12167 10 0 11.1217 0 12.5V15.8333C0 18.1308 1.86917 20 4.16667 20H15.8333C18.1308 20 20 18.1308 20 15.8333V12.5C20 11.1217 18.8783 10 17.5 10ZM18.3333 15.8333C18.3333 17.2117 17.2117 18.3333 15.8333 18.3333H4.16667C2.78833 18.3333 1.66667 17.2117 1.66667 15.8333V12.5C1.66667 12.279 1.75446 12.067 1.91074 11.9107C2.06702 11.7545 2.27899 11.6667 2.5 11.6667L5 11.665V11.6667C5 13.505 6.495 15 8.33333 15H11.6667C13.505 15 15 13.505 15 11.6667H17.5C17.721 11.6667 17.933 11.7545 18.0893 11.9107C18.2455 12.067 18.3333 12.279 18.3333 12.5V15.8333ZM6.0775 5.93417C6.00013 5.8568 5.93876 5.76494 5.89688 5.66385C5.85501 5.56277 5.83346 5.45442 5.83346 5.345C5.83346 5.23558 5.85501 5.12723 5.89688 5.02615C5.93876 4.92506 6.00013 4.8332 6.0775 4.75583C6.15487 4.67846 6.24672 4.61709 6.34781 4.57522C6.4489 4.53334 6.55725 4.51179 6.66667 4.51179C6.77608 4.51179 6.88443 4.53334 6.98552 4.57522C7.08661 4.61709 7.17846 4.67846 7.25583 4.75583L9.16667 6.66667V0.833333C9.16667 0.61232 9.25446 0.400358 9.41074 0.244078C9.56702 0.0877974 9.77899 0 10 0C10.221 0 10.433 0.0877974 10.5893 0.244078C10.7455 0.400358 10.8333 0.61232 10.8333 0.833333V6.66667L12.7442 4.75583C12.9004 4.59958 13.1124 4.51179 13.3333 4.51179C13.5543 4.51179 13.7662 4.59958 13.9225 4.75583C14.0788 4.91209 14.1665 5.12402 14.1665 5.345C14.1665 5.56598 14.0788 5.77791 13.9225 5.93417L11.1783 8.67833C10.8678 8.98901 10.4468 9.164 10.0075 9.165L10 9.16667L9.9925 9.165C9.55322 9.164 9.13223 8.98901 8.82167 8.67833L6.0775 5.93417Z" fill="#05028D"/>
</svg>
