<svg width="20" height="20" viewBox="0 0 20 20" fill="none" xmlns="http://www.w3.org/2000/svg">
<path d="M10 0C7.53822 0.00744699 5.16524 0.92045 3.33333 2.565V0H1.66667V4.28583C1.66711 4.69612 1.83029 5.08948 2.12041 5.37959C2.41052 5.66971 2.80388 5.83289 3.21417 5.83333H7.5V4.16667H4.06583C5.42022 2.79464 7.20901 1.9355 9.12656 1.73602C11.0441 1.53655 12.9714 2.00913 14.5792 3.07301C16.187 4.1369 17.3755 5.72606 17.9415 7.56898C18.5076 9.41191 18.4162 11.3942 17.6829 13.1772C16.9496 14.9602 15.6199 16.4332 13.921 17.3446C12.2221 18.256 10.2595 18.5491 8.3684 18.174C6.47735 17.7989 4.77524 16.7787 3.5529 15.2878C2.33056 13.797 1.66384 11.9279 1.66667 10H0C0 11.9778 0.58649 13.9112 1.6853 15.5557C2.78412 17.2002 4.3459 18.4819 6.17317 19.2388C8.00043 19.9957 10.0111 20.1937 11.9509 19.8079C13.8907 19.422 15.6725 18.4696 17.0711 17.0711C18.4696 15.6725 19.422 13.8907 19.8079 11.9509C20.1937 10.0111 19.9957 8.00043 19.2388 6.17317C18.4819 4.3459 17.2002 2.78412 15.5557 1.6853C13.9112 0.58649 11.9778 0 10 0Z" fill="#969696"/>
<path d="M9.16663 5.83301V10.3447L11.9108 13.0888L13.0891 11.9105L10.8333 9.65467V5.83301H9.16663Z" fill="#969696"/>
</svg>
