<svg width="20" height="20" viewBox="0 0 20 20" fill="none" xmlns="http://www.w3.org/2000/svg">
<path d="M15.8333 20.0039H4.16667C1.86917 20.0039 0 18.1347 0 15.8372V8.10722C0 6.71972 0.686667 5.42805 1.83667 4.65305L7.66917 0.716384C8.35684 0.24957 9.16885 0 10 0C10.8312 0 11.6432 0.24957 12.3308 0.716384L18.1642 4.65305C18.7299 5.03416 19.1933 5.54854 19.5134 6.15089C19.8335 6.75324 20.0007 7.42508 20 8.10722V15.8372C20 18.1347 18.1308 20.0039 15.8333 20.0039ZM10 1.66805C9.50128 1.66848 9.01416 1.81857 8.60167 2.09888L2.76833 6.03472C2.42886 6.26317 2.1508 6.57163 1.95868 6.93291C1.76655 7.2942 1.66627 7.6972 1.66667 8.10638V15.8364C1.66667 17.2147 2.78833 18.3364 4.16667 18.3364H15.8333C17.2117 18.3364 18.3333 17.2147 18.3333 15.8364V8.10722C18.3333 7.27472 17.9217 6.49972 17.2325 6.03555L11.3983 2.09888C10.9858 1.81857 10.4987 1.66848 10 1.66805Z" fill="#969696"/>
</svg>
