<svg width="18" height="18" viewBox="0 0 18 18" fill="none" xmlns="http://www.w3.org/2000/svg">
<path d="M16.4911 13.5466C17.3491 12.1489 17.8021 10.5404 17.7999 8.90038C17.8022 7.26028 17.3491 5.65156 16.4911 4.25378L16.4863 4.24598C15.6903 2.94862 14.575 1.87706 13.2468 1.1337C11.9186 0.390332 10.422 0 8.8999 0C7.37784 0 5.88121 0.390332 4.55302 1.1337C3.22482 1.87706 2.10946 2.94862 1.3135 4.24598L1.3087 4.25378C0.452884 5.65249 0 7.26041 0 8.90018C0 10.5399 0.452884 12.1479 1.3087 13.5466L1.3137 13.5546C2.10969 14.8519 3.22506 15.9234 4.55324 16.6667C5.88142 17.41 7.37803 17.8003 8.90006 17.8003C10.4221 17.8003 11.9187 17.4099 13.2469 16.6666C14.575 15.9232 15.6904 14.8517 16.4863 13.5544L16.4911 13.5466ZM10.0375 16.2748C9.86788 16.4384 9.67264 16.5733 9.4595 16.674C9.28462 16.7571 9.09343 16.8002 8.8998 16.8002C8.70618 16.8002 8.51499 16.7571 8.3401 16.674C7.93462 16.4669 7.58751 16.1614 7.3305 15.7856C6.80567 15.0271 6.41674 14.1831 6.1811 13.2914C7.08644 13.2356 7.9927 13.2072 8.8999 13.2062C9.8067 13.2062 10.713 13.2346 11.6189 13.2914C11.4884 13.7499 11.3255 14.1985 11.1313 14.6338C10.8756 15.246 10.5042 15.8032 10.0375 16.2748ZM1.0173 9.40018H4.6071C4.6305 10.4018 4.73909 11.3997 4.9317 12.383C3.95037 12.4694 2.97157 12.588 1.9953 12.739C1.42355 11.7133 1.08934 10.5723 1.0173 9.40018ZM1.9953 5.06158C2.97117 5.21278 3.9503 5.33144 4.9327 5.41758C4.73975 6.40073 4.63096 7.39854 4.6075 8.40018H1.0173C1.08937 7.22815 1.42358 6.08724 1.9953 5.06158ZM7.7623 1.52558C7.93192 1.36189 8.12717 1.22705 8.3403 1.12638C8.51519 1.04328 8.70638 1.00017 8.9 1.00017C9.09363 1.00017 9.28482 1.04328 9.4597 1.12638C9.86519 1.33349 10.2123 1.63893 10.4693 2.01478C10.9941 2.77325 11.3831 3.61723 11.6187 4.50898C10.7134 4.56471 9.8071 4.59311 8.8999 4.59418C7.9931 4.59418 7.08677 4.56578 6.1809 4.50898C6.31136 4.0505 6.4743 3.6019 6.6685 3.16658C6.92422 2.55435 7.2956 1.99718 7.7623 1.52558ZM16.7825 8.40018H13.1927C13.1693 7.3985 13.0607 6.40064 12.8681 5.41738C13.8494 5.33098 14.8282 5.21231 15.8045 5.06138C16.3763 6.0871 16.7105 7.22808 16.7825 8.40018ZM5.9375 12.3052C5.74196 11.3485 5.63153 10.3764 5.6075 9.40018H12.1925C12.1687 10.3764 12.0585 11.3486 11.8631 12.3054C10.8764 12.2406 9.8887 12.2075 8.8999 12.2062C7.9119 12.2062 6.92444 12.2392 5.9375 12.3052ZM11.8623 5.49518C12.0578 6.45187 12.1683 7.424 12.1923 8.40018H5.6075C5.63131 7.42395 5.74154 6.45175 5.9369 5.49498C6.92357 5.55978 7.9113 5.59284 8.9001 5.59418C9.8881 5.59418 10.8756 5.56111 11.8625 5.49498L11.8623 5.49518ZM13.1923 9.40018H16.7825C16.7104 10.5722 16.3762 11.7131 15.8045 12.7388C14.8285 12.5876 13.8494 12.4689 12.8671 12.3828C13.0601 11.3996 13.1689 10.4018 13.1923 9.40018ZM15.2049 4.14118C14.3516 4.26424 13.4958 4.36171 12.6375 4.43358C12.4833 3.85918 12.2843 3.29774 12.0425 2.75438C11.8217 2.25439 11.5438 1.78159 11.2145 1.34538C12.806 1.83351 14.2026 2.81201 15.2049 4.14118ZM3.3139 3.31398C4.22689 2.40012 5.35011 1.72417 6.5851 1.34538C6.5663 1.36978 6.5471 1.39298 6.5287 1.41758C5.8939 2.33136 5.4315 3.35349 5.1643 4.43358C4.3059 4.36091 3.4495 4.26344 2.5951 4.14118C2.81543 3.84927 3.0556 3.57288 3.3139 3.31398ZM2.5951 13.6592C3.4483 13.5361 4.3041 13.4386 5.1625 13.3668C5.31675 13.9412 5.51569 14.5026 5.7575 15.046C5.97832 15.546 6.25617 16.0188 6.5855 16.455C4.99398 15.9668 3.59737 14.9883 2.5951 13.6592ZM14.4863 14.4864C13.5733 15.4002 12.4501 16.0762 11.2151 16.455C11.2339 16.4306 11.2531 16.4074 11.2715 16.3828C11.9063 15.469 12.3687 14.4469 12.6359 13.3668C13.4943 13.4394 14.3507 13.5369 15.2051 13.6592C14.9848 13.9511 14.7446 14.2275 14.4863 14.4864Z" fill="#969696"/>
</svg>
