<svg width="21" height="25" viewBox="0 0 21 25" fill="none" xmlns="http://www.w3.org/2000/svg">
<path d="M10.958 24.5085L10.2609 23.911C9.29989 23.1063 0.908936 15.8596 0.908936 10.5588C0.908936 5.00887 5.40804 0.509766 10.958 0.509766C16.5079 0.509766 21.007 5.00887 21.007 10.5588C21.007 15.8596 12.616 23.1064 11.659 23.915L10.958 24.5085ZM10.958 2.68266C6.61015 2.68758 3.08679 6.21094 3.08187 10.5587C3.08187 13.8888 8.24431 19.2086 10.958 21.6434C13.6716 19.2076 18.834 13.8848 18.834 10.5587C18.8291 6.21094 15.3058 2.68762 10.958 2.68266Z" fill="#05028D"/>
<path d="M10.958 14.5419C8.75802 14.5419 6.97461 12.7585 6.97461 10.5585C6.97461 8.3586 8.75802 6.5752 10.958 6.5752C13.1579 6.5752 14.9413 8.3586 14.9413 10.5585C14.9413 12.7585 13.1579 14.5419 10.958 14.5419ZM10.958 8.56682C9.85798 8.56682 8.96628 9.45852 8.96628 10.5585C8.96628 11.6585 9.85798 12.5502 10.958 12.5502C12.0579 12.5502 12.9496 11.6585 12.9496 10.5585C12.9496 9.45852 12.058 8.56682 10.958 8.56682Z" fill="#05028D"/>
</svg>
