<svg width="18" height="20" viewBox="0 0 18 20" fill="none" xmlns="http://www.w3.org/2000/svg">
<path d="M14.8332 7.02V5.83333C14.8332 4.28624 14.2186 2.80251 13.1246 1.70854C12.0307 0.614582 10.5469 0 8.99984 0C7.45274 0 5.96901 0.614582 4.87505 1.70854C3.78109 2.80251 3.1665 4.28624 3.1665 5.83333V7.02C2.4243 7.34392 1.79258 7.8771 1.34859 8.55434C0.904592 9.23158 0.667569 10.0235 0.666504 10.8333V15.8333C0.667827 16.938 1.10724 17.997 1.88835 18.7782C2.66947 19.5593 3.72851 19.9987 4.83317 20H13.1665C14.2712 19.9987 15.3302 19.5593 16.1113 18.7782C16.8924 17.997 17.3318 16.938 17.3332 15.8333V10.8333C17.3321 10.0235 17.0951 9.23158 16.6511 8.55434C16.2071 7.8771 15.5754 7.34392 14.8332 7.02ZM4.83317 5.83333C4.83317 4.72826 5.27216 3.66846 6.05356 2.88705C6.83496 2.10565 7.89477 1.66667 8.99984 1.66667C10.1049 1.66667 11.1647 2.10565 11.9461 2.88705C12.7275 3.66846 13.1665 4.72826 13.1665 5.83333V6.66667H4.83317V5.83333ZM15.6665 15.8333C15.6665 16.4964 15.4031 17.1323 14.9343 17.6011C14.4654 18.0699 13.8295 18.3333 13.1665 18.3333H4.83317C4.17013 18.3333 3.53424 18.0699 3.0654 17.6011C2.59656 17.1323 2.33317 16.4964 2.33317 15.8333V10.8333C2.33317 10.1703 2.59656 9.53441 3.0654 9.06557C3.53424 8.59672 4.17013 8.33333 4.83317 8.33333H13.1665C13.8295 8.33333 14.4654 8.59672 14.9343 9.06557C15.4031 9.53441 15.6665 10.1703 15.6665 10.8333V15.8333Z" fill="#969696"/>
<path d="M8.99984 11.667C8.77882 11.667 8.56686 11.7548 8.41058 11.9111C8.2543 12.0674 8.1665 12.2793 8.1665 12.5003V14.167C8.1665 14.388 8.2543 14.6 8.41058 14.7562C8.56686 14.9125 8.77882 15.0003 8.99984 15.0003C9.22085 15.0003 9.43281 14.9125 9.58909 14.7562C9.74537 14.6 9.83317 14.388 9.83317 14.167V12.5003C9.83317 12.2793 9.74537 12.0674 9.58909 11.9111C9.43281 11.7548 9.22085 11.667 8.99984 11.667Z" fill="#969696"/>
</svg>
