<svg width="20" height="17" viewBox="0 0 20 17" fill="none" xmlns="http://www.w3.org/2000/svg">
<path d="M7.47498 6.60167C7.50426 6.68198 7.50813 6.76935 7.48607 6.85194C7.46401 6.93452 7.41708 7.00833 7.35165 7.06333L6.36581 7.86667L6.77331 9.10833C6.80072 9.19025 6.80188 9.27868 6.77663 9.36128C6.75139 9.44389 6.70099 9.51656 6.63248 9.56917C6.56393 9.62154 6.48088 9.65149 6.39468 9.65492C6.30847 9.65835 6.22331 9.63509 6.15081 9.58833L5.00331 8.84083L3.87498 9.59583C3.80324 9.64387 3.71836 9.66844 3.63205 9.66614C3.54575 9.66384 3.46229 9.63479 3.39322 9.58301C3.32414 9.53122 3.27285 9.45926 3.24645 9.37706C3.22004 9.29486 3.21982 9.20649 3.24581 9.12417L3.63748 7.8675L2.64665 7.06167C2.5817 7.00647 2.53524 6.93269 2.51354 6.85027C2.49183 6.76785 2.49593 6.68076 2.52527 6.60074C2.5546 6.52072 2.60778 6.45162 2.67761 6.40276C2.74744 6.3539 2.83058 6.32763 2.91581 6.3275H4.16581L4.60831 5.08583C4.63783 5.00595 4.69112 4.93704 4.761 4.88837C4.83087 4.83969 4.91399 4.8136 4.99915 4.8136C5.0843 4.8136 5.16742 4.83969 5.2373 4.88837C5.30717 4.93704 5.36046 5.00595 5.38998 5.08583L5.83248 6.3275H7.08248C7.16801 6.32747 7.25148 6.35377 7.32155 6.40282C7.39162 6.45187 7.44489 6.52129 7.47415 6.60167H7.47498ZM12.0833 6.3275H10.8333L10.3908 5.08583C10.3613 5.00595 10.308 4.93704 10.2381 4.88837C10.1683 4.83969 10.0851 4.8136 9.99998 4.8136C9.91482 4.8136 9.83171 4.83969 9.76183 4.88837C9.69195 4.93704 9.63867 5.00595 9.60915 5.08583L9.16665 6.3275H7.91665C7.8312 6.32717 7.74772 6.35316 7.67758 6.40196C7.60743 6.45075 7.55402 6.51996 7.5246 6.60019C7.49519 6.68042 7.4912 6.76776 7.51319 6.85033C7.53518 6.9329 7.58207 7.00669 7.64748 7.06167L8.63831 7.8675L8.24665 9.12417C8.22065 9.20649 8.22087 9.29486 8.24728 9.37706C8.27369 9.45926 8.32497 9.53122 8.39405 9.58301C8.46313 9.63479 8.54659 9.66384 8.63289 9.66614C8.71919 9.66844 8.80408 9.64387 8.87581 9.59583L10.0041 8.84083L11.1516 9.58833C11.224 9.63529 11.3092 9.65862 11.3954 9.65511C11.4816 9.65161 11.5645 9.62143 11.6329 9.56875C11.7012 9.51608 11.7515 9.44349 11.7768 9.36102C11.8021 9.27855 11.8012 9.19026 11.7741 9.10833L11.3666 7.86667L12.3525 7.06333C12.418 7.00834 12.465 6.93451 12.4871 6.85187C12.5092 6.76923 12.5054 6.68179 12.4761 6.60142C12.4468 6.52105 12.3934 6.45165 12.3233 6.40264C12.2532 6.35364 12.1697 6.3274 12.0841 6.3275H12.0833ZM17.0833 6.3275H15.8333L15.3908 5.08583C15.3613 5.00595 15.308 4.93704 15.2381 4.88837C15.1683 4.83969 15.0851 4.8136 15 4.8136C14.9148 4.8136 14.8317 4.83969 14.7618 4.88837C14.692 4.93704 14.6387 5.00595 14.6091 5.08583L14.1666 6.3275H12.9166C12.8312 6.32717 12.7477 6.35316 12.6776 6.40196C12.6074 6.45075 12.554 6.51996 12.5246 6.60019C12.4952 6.68042 12.4912 6.76776 12.5132 6.85033C12.5352 6.9329 12.5821 7.00669 12.6475 7.06167L13.6383 7.8675L13.2466 9.12417C13.2207 9.20649 13.2209 9.29486 13.2473 9.37706C13.2737 9.45926 13.325 9.53122 13.394 9.58301C13.4631 9.63479 13.5466 9.66384 13.6329 9.66614C13.7192 9.66844 13.8041 9.64387 13.8758 9.59583L15.0041 8.84083L16.1516 9.58833C16.224 9.63529 16.3092 9.65862 16.3954 9.65511C16.4816 9.65161 16.5645 9.62143 16.6329 9.56875C16.7012 9.51608 16.7515 9.44349 16.7768 9.36102C16.8021 9.27855 16.8012 9.19026 16.7741 9.10833L16.3666 7.86667L17.3525 7.06333C17.418 7.00834 17.465 6.93451 17.4871 6.85187C17.5092 6.76923 17.5054 6.68179 17.4761 6.60142C17.4468 6.52105 17.3934 6.45165 17.3233 6.40264C17.2532 6.35364 17.1689 6.3274 17.0833 6.3275ZM20 3.8325V10.4992C20 12.3375 18.505 13.8325 16.6666 13.8325H14.29L11.0833 16.4825C10.7862 16.7447 10.4029 16.8882 10.0066 16.8858C9.59603 16.8863 9.19953 16.736 8.89248 16.4633L5.76831 13.8325H3.33248C1.49415 13.8325 -0.000854492 12.3375 -0.000854492 10.4992V3.83333C0.000468526 2.94954 0.352197 2.10234 0.977212 1.47748C1.60223 0.852619 2.44952 0.501102 3.33331 0.5H16.6666C18.505 0.5 20 1.99417 20 3.8325ZM18.3333 3.8325C18.3333 2.91333 17.5858 2.16583 16.6666 2.16583H3.33331C2.41415 2.16583 1.66665 2.91333 1.66665 3.8325V10.4992C1.66665 11.4183 2.41415 12.1658 3.33331 12.1658H6.07331C6.26915 12.1658 6.45998 12.235 6.61081 12.3617L9.98415 15.2033L13.46 12.3567C13.6093 12.2332 13.7971 12.1657 13.9908 12.1658H16.6675C17.5866 12.1658 18.3341 11.4183 18.3341 10.4992V3.83333L18.3333 3.8325Z" fill="#969696"/>
</svg>
