<svg width="180" height="180" viewBox="0 0 180 180" fill="none" xmlns="http://www.w3.org/2000/svg">
<path d="M110.291 124.337L41.9584 163.129L12.9327 179.079C12.9327 179.079 8.86545 177.779 2.46023 173.449C-2.03699 170.408 10.3851 160.005 12.0365 158.495L0 142.136C29.3106 125.722 68.6193 104.112 68.6193 104.112L110.291 124.337Z" fill="#A9A9AB"/>
<path d="M19.3366 152.818V155.664L6.60675 133.974L8.45965 132.762L44.9064 111.862L19.3366 152.818Z" fill="#8D8A88"/>
<path d="M8.86544 133.764L6.60675 133.975L15.225 105.163L53.5246 83.0513L8.86544 133.764Z" fill="#8D8A88"/>
<path d="M57.6362 130.705L19.3366 152.818L8.86548 133.764L46.7593 110.651L57.6362 130.705Z" fill="#BBB8B5"/>
<path d="M70.0396 137.868L57.6362 130.706L18.5264 124.337L13.8773 130.706L20.1965 154.055L32.6939 160.577L70.0396 137.868Z" fill="#9C9A99"/>
<path d="M87.7302 150.304V151.264C87.7302 153.987 86.2709 156.491 83.9142 157.84L62.984 169.776C57.0034 173.192 49.663 173.179 43.6958 169.728L36.9869 165.863V165.851H36.9748L19.3393 155.666V152.822L22.5117 152.701L87.7302 150.304Z" fill="#8D8A88"/>
<path d="M36.9869 163.127V165.861C36.9869 165.861 36.9869 165.861 36.9748 165.849L19.3393 155.664V152.82L22.5117 152.699C28.1013 156.697 36.9869 163.127 36.9869 163.127Z" fill="#666360"/>
<path d="M85.7818 153.707L61.565 167.689C56.4685 170.632 50.191 170.632 45.0945 167.689L19.3365 152.818L57.6362 130.705L85.7818 146.955C88.3804 148.456 88.3804 152.208 85.7818 153.707Z" fill="#E7E5E3"/>
<path d="M75.5109 141.026L36.9882 163.129L19.3365 152.818L57.6362 130.705L75.5109 141.026Z" fill="#B8B6B4"/>
<path d="M46.7593 110.651L8.86548 133.763L16.6735 108.224L54.9731 86.1118L46.7593 110.651Z" fill="#7C776A"/>
<path d="M102.168 1.56508L18.9966 49.5834C14.6472 52.0947 11.5581 59.591 12.0983 66.3267L14.3839 145.607C14.8609 153.076 16.2677 153.632 20.1844 155.539C23.8808 157.338 27.0384 158.885 27.0384 158.885L106.172 109.442C110.521 106.931 113.61 99.4344 113.07 92.6987L110.321 1.09344C110.321 1.09344 106.643 0.33564 105.331 0.471349C104.648 0.542563 103.667 0.699765 102.168 1.56508Z" fill="url(#paint0_linear_191_1498)"/>
<path d="M21.8359 155.539C17.9191 153.632 16.5123 153.076 16.0353 145.606L13.7484 66.3266C13.2082 59.5908 16.2959 52.0945 20.6467 49.5832L103.818 1.56494C105.097 0.825925 105.997 0.604226 106.658 0.511514C106.132 0.459111 105.657 0.437614 105.329 0.471206C104.647 0.541076 103.666 0.698268 102.166 1.56358L18.9953 49.5819C14.6459 52.0932 11.5569 59.5895 12.097 66.3252L14.3826 145.605C14.8596 153.074 16.2664 153.631 20.1831 155.537C23.8795 157.337 27.0371 158.883 27.0371 158.883L27.7627 158.43C26.5628 157.844 24.323 156.749 21.8359 155.539Z" fill="url(#paint1_linear_191_1498)"/>
<path d="M114.748 110.396L31.5786 158.413C27.2306 160.93 23.2641 157.498 22.7307 150.766L22.1865 143.644L16.3321 66.5377C15.7893 59.8059 18.8784 52.3029 23.2251 49.7943L35.8394 42.5104L96.0218 7.76606L106.396 1.77873C110.744 -0.737943 114.711 2.69377 115.254 9.4255L115.645 14.5354L121.652 93.654C122.195 100.384 119.106 107.889 114.748 110.396Z" fill="#6A6B6B"/>
<path d="M109.646 8.14111L22.3436 58.5458L28.1791 135.771L115.482 85.3665L109.646 8.14111Z" fill="#7FBAD6"/>
<path d="M60.0803 29.4784L47.1261 128.587L68.5574 116.213L81.5103 17.106L60.0803 29.4784Z" fill="#2D332D"/>
<path d="M35.8407 43.7935L23.4482 138.591L23.0088 138.842L17.5065 66.3763C16.996 60.0503 19.8996 52.9975 23.9856 50.6407L35.8407 43.7935Z" fill="#2D332D"/>
<path d="M114.468 15.3972L104.039 95.1755L82.6121 107.548L95.5099 8.85758L105.532 3.07179C109.733 0.639764 113.566 3.9559 114.09 10.4606L114.468 15.3972Z" fill="#2D332D"/>
<path d="M109.647 8.14111L108.952 8.54288L114.707 84.7109L28.0986 134.714L28.1792 135.771L115.482 85.3665L109.647 8.14111Z" fill="#484949"/>
<path d="M114.752 110.396L114.085 110.787L95.4642 121.532L84.805 127.691L65.4496 138.865L56.9348 143.775L37.828 154.806L31.5827 158.41C27.2346 160.927 23.2681 157.504 22.7252 150.763L22.1918 144.118L41.1562 133.172L61.2076 121.597L68.7684 117.23L89.0778 105.502L98.7844 99.9059L118.359 88.5976L121.124 87.0054L121.657 93.6511C122.19 100.384 119.1 107.887 114.752 110.396Z" fill="#F1F1F1"/>
<path d="M63.3979 121.613L59.68 140.912L43.0522 150.511L45.9491 131.685L63.3979 121.613Z" fill="#E6E1E4"/>
<path d="M113.131 92.8945L109.414 112.203L93.2096 121.553L96.0971 102.735L113.131 92.8945Z" fill="#E6E1E4"/>
<path d="M35.4242 107.191C34.8289 107.676 43.8274 118.049 47.6407 121.556C51.454 125.061 65.4482 138.867 65.4482 138.867L86.3098 126.823C86.3098 126.823 87.7099 120.787 79.7393 116.958C71.7688 113.128 54.9757 94.2364 54.9757 94.2364L89.7751 110.652L99.8889 93.2663L98.1367 96.2787L83.2759 70.8594C83.2759 70.8594 91.0771 56.0778 97.0591 58.3607C103.041 60.6436 115.016 74.846 115.174 78.0238C115.333 81.2015 88.242 119.884 88.242 119.884C88.242 119.884 47.2027 97.5821 35.4242 107.191Z" fill="#8B908C"/>
<mask id="mask0_191_1498" style="mask-type:luminance" maskUnits="userSpaceOnUse" x="34" y="44" width="146" height="98">
<path d="M52.7856 84.8934C52.7856 84.8934 46.4073 78.1308 39.7763 87.6009C33.1453 97.071 33.0594 106.688 36.7934 111.245C40.5274 115.803 116.032 145.298 126.303 141.271C133.453 138.466 142.23 132.859 165.355 119.087C172.158 115.036 185.066 120.308 177.896 78.7327C175.565 65.2155 97.6974 44.2961 97.6974 44.2961C97.6974 44.2961 89.2189 43.7949 85.8597 50.958C82.08 59.0186 79.683 65.1201 84.4422 72.8462C88.5081 79.4476 83.8187 81.7157 83.8187 81.7157L52.7856 84.8934Z" fill="white"/>
</mask>
<g mask="url(#mask0_191_1498)">
<path d="M79.8362 68.6324C79.8362 68.6324 86.4323 73.1753 88.5485 73.3849C90.6581 73.5999 94.6702 77.4535 95.5194 77.8781C96.1147 78.1764 100.101 80.857 102.376 82.3968C103.314 83.031 103.967 83.4744 103.967 83.4744C103.967 83.4744 141.245 69.2679 136.918 66.3146C134.129 64.4079 128.502 61.7649 124.168 59.5278C124.149 59.521 124.104 59.4955 124.041 59.4646C121.697 58.2486 119.746 57.1642 118.857 56.3849C117.082 54.833 115.309 54.7309 114.403 54.8075C114.016 54.8397 113.789 54.9082 113.789 54.9082C113.789 54.9082 113.377 54.6355 112.795 54.2619C112.788 54.2552 112.788 54.2552 112.783 54.2552C111.674 53.5525 109.95 52.5125 109.278 52.3728C108.245 52.1578 106.927 49.3052 106.927 49.3052C104.715 47.6767 103.481 46.6501 101.395 46.6689C98.7213 46.6877 94.4055 39.4011 92.0864 41.1747C91.7316 41.4475 91.3836 41.7511 91.0477 42.087C89.2674 43.8177 87.6765 46.3518 86.2952 49.1654V49.1722C85.4715 50.8571 84.7177 52.6388 84.0392 54.4192C81.3116 61.5674 79.8362 68.6324 79.8362 68.6324Z" fill="#DD4026"/>
<path d="M120.231 60.6616C120.231 60.6616 112.573 65.7312 109.273 70.2728C105.973 74.8144 104.811 78.3253 104.811 78.3253C104.811 78.3253 111.623 69.5862 113.735 67.2092C115.848 64.8323 120.231 60.6616 120.231 60.6616Z" fill="#AE1F00"/>
<path d="M102.646 67.0508C102.646 67.0508 97.7875 71.5924 96.468 72.5423C95.1485 73.4923 92.9302 73.5984 92.9302 73.5984C92.9302 73.5984 95.0948 70.3508 96.3095 69.4922C97.5228 68.6349 102.646 67.0508 102.646 67.0508Z" fill="#AE1F00"/>
<path d="M105.814 69.4928C105.814 69.4928 104.969 66.4991 105.814 65.2441C106.66 63.9878 110.356 59.4476 112.521 58.55C114.685 57.6525 116.001 56.2403 118.026 56.7415C120.051 57.2426 120.051 57.2426 120.051 57.2426C120.051 57.2426 117.933 58.4842 116.929 58.4842C115.926 58.4842 114.183 58.0488 113.074 58.8013C111.966 59.5537 110.619 60.6622 109.985 61.6525C109.351 62.6428 109.133 64.7026 108.55 65.8501C107.966 66.9976 105.814 69.4928 105.814 69.4928Z" fill="#AE1F00"/>
<path d="M104.334 51.58C105.342 52.7396 107.768 52.264 108.547 52.264C109.334 52.264 110.144 53.3228 110.144 53.3228C110.144 53.3228 107.876 53.0567 105.436 54.8505C103.002 56.6496 103.49 61.5043 103.49 61.5043C103.49 61.5043 105.499 60.0276 105.644 59.2859C105.789 58.551 106.867 56.2761 108.135 55.6419C109.402 55.0077 111.779 55.908 112.519 55.5909C113.261 55.2738 113.786 54.907 113.786 54.907C113.786 54.907 110.301 52.5811 109.274 52.3728C108.241 52.1578 106.923 49.3052 106.923 49.3052C104.711 47.6767 102.539 46.9928 100.453 47.0116C101.296 47.3798 101.904 47.7788 101.904 47.7788C101.904 47.7788 102.646 47.9374 103.451 48.3553C104.257 48.7799 103.333 50.4151 104.334 51.58Z" fill="#AE1F00"/>
<path d="M83.6092 63.83C83.847 63.83 89.7081 68.424 91.569 68.9789C93.43 69.5339 95.1727 70.1936 98.8167 67.0508C102.461 63.9093 105.945 61.5042 105.945 61.5042C105.945 61.5042 102.355 65.5727 102.645 68.1069C102.935 70.641 101.747 72.5423 100.954 72.7008C100.163 72.8594 97.504 73.9397 96.202 73.5984C94.8999 73.2571 95.0397 73.9424 92.9275 73.5984C90.8152 73.2558 90.8152 73.2558 90.8152 73.2558C90.8152 73.2558 94.38 74.9193 95.647 74.9985C96.9141 75.0778 99.1325 74.3643 99.7653 75.6327C100.4 76.8998 103.119 78.3254 103.963 78.3254C104.807 78.3254 105.943 80.3852 105.943 80.3852C105.943 80.3852 105.483 74.4973 105.436 73.5998C105.389 72.7022 107.127 71.2739 108.547 70.3253C109.969 69.378 113.072 64.9385 114.814 63.6715C116.557 62.4044 119.17 60.6617 119.17 60.6617C119.17 60.6617 114.55 61.8239 112.741 63.0641C110.932 64.3043 110.141 65.73 110.141 65.73C110.141 65.73 110.22 63.1958 111.487 62.3238C112.754 61.4531 114.973 59.7897 115.685 59.7897C116.398 59.7897 116.398 59.7897 116.398 59.7897C116.398 59.7897 113.389 58.7967 111.487 60.6603C109.586 62.524 108.547 67.0494 108.547 67.0494C108.547 67.0494 106.115 70.4825 105.436 70.3239C104.754 70.1654 104.306 65.863 104.808 65.2422C105.309 64.6214 108.549 59.9482 108.549 59.9482C108.549 59.9482 105.864 60.2075 103.489 61.5042C101.112 62.7995 97.5483 66.7082 96.1227 67.0508C94.697 67.3934 92.3201 68.1069 90.8152 66.0471C89.3117 63.9872 83.6092 63.83 83.6092 63.83Z" fill="#FF5236"/>
<path d="M95.037 53.1615C96.6695 52.4064 98.4646 52.1108 100.264 52.0678C100.843 52.0543 101.374 51.885 101.391 51.314C101.43 50.0469 102.037 48.3042 102.645 49.6505C103.252 50.9969 103.411 52.1847 104.123 52.5018C104.836 52.8189 103.964 54.1652 103.173 56.1458C102.38 58.1263 101.696 61.0569 100.455 62.2447C99.213 63.4325 96.5983 66.8923 96.4397 63.0629C96.2812 59.2335 97.3104 57.9154 97.074 56.6349C96.8361 55.353 94.4605 54.1128 94.4605 56.9909C94.4605 59.8691 94.9362 64.5383 93.9849 64.8177C93.0349 65.0972 87.014 64.3233 86.5397 62.1855C86.064 60.0464 89.5495 57.4236 89.708 57.0232C89.8276 56.7195 91.6913 54.7094 95.037 53.1615Z" fill="#FF5236"/>
<path d="M114.403 54.8063C114.872 54.9836 115.278 55.1677 115.581 55.3827C116.722 56.1741 123.027 58.9944 124.041 59.4634C121.696 58.2474 119.745 57.1631 118.857 56.3837C117.082 54.8318 115.309 54.7297 114.403 54.8063Z" fill="#AE1F00"/>
<path d="M102.647 48.0005C103.814 49.1601 107.958 51.7009 109.789 52.9304C110.67 53.5202 111.753 53.9126 112.78 54.2552C111.671 53.5525 109.948 52.5125 109.276 52.3728C108.242 52.1578 106.924 49.3052 106.924 49.3052C104.713 47.6767 103.478 46.6501 101.392 46.6689C98.7186 46.6877 94.4028 39.4011 92.0836 41.1747C92.0836 41.1747 92.9395 44.4506 95.4414 46.0347C97.9447 47.6189 97.9447 47.6189 97.9447 47.6189L99.3703 48.0946C99.3703 48.0946 101.476 46.8476 102.647 48.0005Z" fill="#AE1F00"/>
<path d="M79.8362 68.6327C79.8362 68.6327 86.4323 73.1756 88.5485 73.3852C90.6581 73.6002 94.6702 77.4538 95.5194 77.8784C96.1147 78.1767 106.277 85.1516 108.552 86.6915C109.769 86.6216 104.296 82.2574 104.296 82.2574C104.175 81.9403 99.8917 77.3785 97.1036 76.0282C94.3155 74.6791 88.562 73.8098 86.4954 71.9099C84.4302 70.0086 81.8947 68.5319 81.8947 68.5319C81.8947 68.5319 83.3203 63.0323 83.6119 61.5046C83.8968 59.9768 85.3103 53.0382 86.2925 49.1738C82.142 57.6133 79.8362 68.6327 79.8362 68.6327Z" fill="#AE1F00"/>
<path d="M83.3633 58.6368C83.3633 58.6368 84.6532 58.3654 88.0594 56.5944C91.4656 54.8222 91.6886 54.7886 91.6886 54.7886C91.6886 54.7886 87.8471 58.2727 85.1934 59.5263C82.5396 60.7799 81.7643 61.1884 81.7643 61.1884L83.3633 58.6368Z" fill="#AE1F00"/>
<path d="M95.9655 51.6314C95.9655 51.6314 98.4996 49.5434 100.203 48.6606C101.906 47.7778 101.906 47.7778 101.906 47.7778L103.452 48.3542C103.452 48.3542 99.5302 49.9666 98.5399 50.8387C97.5496 51.7107 95.9655 51.6314 95.9655 51.6314Z" fill="#AE1F00"/>
<path d="M98.4606 48.1456C98.4606 48.1456 93.1532 51.1957 90.8958 53.1359C88.6385 55.0762 84.2823 57.0178 84.2823 57.0178C84.2823 57.0178 83.1738 57.8885 83.1738 57.9879C83.1738 58.0873 81.6313 59.302 84.2434 58.3574C86.8554 57.4128 92.9301 53.9677 92.9301 53.9677L95.9668 51.3139L100.838 48.1456C100.838 48.1456 102.342 46.9578 98.4606 48.1456Z" fill="#FF5236"/>
<path d="M84.0364 54.4193C85.3358 54.4516 87.2814 54.2299 88.2945 53.1644C89.8787 51.5036 96.7542 47.7776 96.7542 47.7776C96.7542 47.7776 95.5691 47.1945 94.384 46.1679C93.1921 45.1347 92.0836 42.2014 92.0836 42.2014C91.7477 42.0993 91.3997 42.0684 91.045 42.0872C89.2646 43.8179 87.6737 46.352 86.2924 49.1656V49.1724C85.4688 50.8586 84.715 52.639 84.0364 54.4193Z" fill="#FF5236"/>
<path d="M174.278 93.6406C174.278 93.6406 177.683 100.961 177.789 101.7C177.895 102.439 177.789 108.116 177.789 108.116C177.789 108.116 175.888 109.963 175.808 110.149C175.729 110.334 174.251 111.073 173.669 110.149C173.089 109.224 173.485 107.905 173.669 107.694C173.855 107.483 174.224 107.087 174.224 107.087L173.855 101.41L174.278 93.6406Z" fill="#F9C48E"/>
<path d="M173.856 96.0571L173.855 101.41L174.224 107.087C174.224 107.087 173.855 107.484 173.669 107.695C173.511 107.876 173.198 108.881 173.485 109.746C173.601 108.693 174.329 108.01 174.406 107.954C175.845 106.884 175.818 106.145 175.818 106.145C175.818 106.145 175.913 104.282 175.967 101.01C175.974 100.66 174.475 97.7125 173.856 96.0571Z" fill="#E09C63"/>
<path d="M174.673 104.473C174.673 104.473 172.798 107.562 171.769 108.46C170.74 109.358 168.152 111.153 167.941 111.153C167.73 111.153 163.875 111.403 162.74 110.604C161.603 109.806 171.928 100.882 174.673 104.473Z" fill="#D18361"/>
<path d="M174.293 75.9473V105.634L124.744 135.209V103.816L174.293 75.9473Z" fill="#D9AF6A"/>
<path d="M124.744 135.209L174.293 105.634V104.894L124.744 134.47V135.209Z" fill="#B37240"/>
<path d="M89.3748 84.9551L89.3372 116.614L124.744 135.209V103.816L89.3748 84.9551Z" fill="#B76F3F"/>
<path d="M101.438 120.545V91.2451L107.987 95.0262V124.697L101.438 120.545Z" fill="#9C480C"/>
<path d="M100.882 120.284V90.9839L107.431 94.765V124.436L100.882 120.284Z" fill="#B3A4AD"/>
<path d="M139.083 56.0537L89.3748 84.9558L124.744 103.817L174.293 75.9479L139.083 56.0537Z" fill="#EFD995"/>
<path d="M171.252 75.9479L124.864 101.917L89.3748 84.9558L124.744 103.817L174.293 75.9479L139.083 56.0537L171.252 75.9479Z" fill="#FFEDB4"/>
<path d="M132.974 129.412C132.974 129.412 130.887 129.713 130.027 129.91C129.169 130.108 125.062 130.033 125.062 130.033L121.179 126.862L112.748 116.366C112.748 116.366 110.57 111.181 110.791 110.544C111.534 108.405 113.962 107.79 114.857 106.571C116.244 104.683 117.152 102.546 116.444 101.386C115.991 100.644 114.951 98.3036 112.101 100.863C107.016 105.429 102.857 106.802 102.857 106.802C102.857 106.802 96.8254 106.679 95.1619 106.492C93.4985 106.305 89.3143 104.26 89.3143 104.26V115.318C89.3143 115.318 119.768 133.866 123.465 133.635C127.164 133.403 132.974 129.412 132.974 129.412Z" fill="#904C28"/>
<path d="M92.312 125.322C92.312 125.322 97.1492 127.769 97.555 123.123C97.9594 118.476 101.251 107.984 95.1633 106.998L87.7315 111.863C87.7315 111.863 87.9801 123.155 92.312 125.322Z" fill="#AE1F00"/>
<path d="M85.1329 120.995C85.1329 120.995 85.1329 120.995 90.9052 122.687C96.6843 124.385 105.251 131.818 107.412 132.717C109.579 133.611 111.848 131.817 111.848 131.817C111.848 131.817 120.403 137.678 122.145 137.412C122.773 137.316 124.591 136.626 126.676 135.771C128.697 134.948 130.973 133.959 132.658 133.205C134.09 132.565 135.091 132.09 135.136 132.026C135.294 131.817 136.118 129.39 134.452 129.175C133.773 129.086 133.064 129.301 132.412 129.574C131.468 129.967 130.625 130.493 130.1 130.442C129.2 130.366 127.482 131.392 126.082 130.442C126.082 130.442 126.082 130.442 126.076 130.436C124.675 129.491 122.863 129.523 121.379 128.016C119.903 126.508 113.832 119.512 112.089 117.034C111.956 116.844 111.83 116.647 111.723 116.451H111.716C110.309 114.062 110.087 111.21 110.164 110.406C110.24 109.531 113.117 106.654 114.333 105.837C115.549 105.02 117.369 101.11 115.969 98.8663C115.297 97.7887 114.644 97.8276 114.048 98.2522C113.409 98.7091 112.831 99.6214 112.382 100.058C111.508 100.901 107.889 103.144 105.938 104.621C103.986 106.105 101.711 105.946 100.868 105.839C100.026 105.731 97.8587 107.948 95.5328 108.107C93.2137 108.265 90.3046 107.157 90.3046 107.157C81.1154 106.364 85.1329 120.995 85.1329 120.995Z" fill="#F9C48E"/>
<path d="M126.676 135.773C125.672 136.184 124.735 136.556 123.958 136.844C123.65 136.295 123.204 135.679 122.688 135.542C121.718 135.284 117.995 132.809 116.966 132.194C115.936 131.58 113.381 129.779 111.995 128.471C110.609 127.164 106.887 123.973 106.887 123.973L127.164 133.401L131.997 132.356C131.997 132.356 133.184 132.397 133.923 131.446C134.249 131.027 134.832 130.453 135.405 129.98C135.633 130.778 135.241 131.887 135.135 132.025C135.09 132.088 134.089 132.564 132.657 133.204C130.973 133.96 128.697 134.949 126.676 135.773Z" fill="#E09C63"/>
<path d="M87.8216 107.395C88.5176 107.169 89.3332 107.072 90.3033 107.157C90.3033 107.157 92.6615 108.053 94.8248 108.116C93.6652 109.085 91.9977 110.978 91.5207 114.116C90.7683 119.066 92.6695 122.671 92.6695 122.671C92.6695 122.671 95.2829 124.176 97.1842 125.324C99.0855 126.473 105.351 130.844 106.333 131.621C107.164 132.276 108.189 132.809 109.277 132.634C109.809 132.549 110.275 132.275 110.752 132.044C111.015 131.918 111.119 131.891 110.922 131.645C110.756 131.439 110.457 131.28 110.249 131.118C110.003 130.927 109.755 130.737 109.491 130.574C109.133 130.354 108.746 130.183 108.386 129.967C107.924 129.69 107.512 129.341 107.112 128.98C106.763 128.666 106.579 128.228 106.223 127.924C106.967 128.557 107.8 129.199 108.683 129.627C109.527 130.035 110.249 130.655 111.098 131.054C111.923 131.442 112.738 131.817 113.527 132.283C114.636 132.939 115.612 133.789 116.705 134.469C117.156 134.75 117.625 135 118.093 135.25C118.802 135.629 119.527 135.988 120.224 136.387C120.79 136.711 121.467 136.962 121.944 137.42C119.828 137.284 111.852 131.82 111.852 131.82C111.852 131.82 109.584 133.613 107.416 132.72C105.256 131.82 96.6884 124.388 90.9093 122.689C90.2066 122.484 89.5925 122.304 89.0497 122.144C88.4652 120.984 88.2502 120.044 88.2502 119.887C88.2462 119.647 87.3809 112.548 87.8216 107.395Z" fill="#E09C63"/>
<path d="M111.716 116.452H111.723L121.183 128.334L126.639 130.723C126.639 130.723 127.443 131.782 128.591 131.819C129.636 131.852 131.885 131.432 132.659 133.207C132.736 133.378 132.799 133.574 132.844 133.797C133.345 136.256 132.356 136.534 131.089 136.497C130.34 136.471 128.478 136.098 126.679 135.774C125.443 135.559 124.239 135.356 123.441 135.305C121.502 135.184 117.503 131.978 115.919 131.186C114.335 130.394 111.958 128.018 111.958 128.018L106.888 123.975C106.888 123.975 101.659 113.841 111.716 116.452Z" fill="#F9C48E"/>
<path d="M107.995 110.165C107.995 110.697 108.312 112.967 109.421 114.126C110.529 115.293 111.481 116.977 111.481 116.977L118.293 125.323L121.183 128.333L125.504 130.442L127.095 131.184C127.095 131.184 128.869 130.867 129.624 130.867C130.373 130.867 132.178 129.67 132.412 129.574C131.468 129.967 130.625 130.493 130.1 130.442C129.199 130.366 127.482 131.392 126.082 130.442C126.082 130.442 126.082 130.442 126.075 130.436C124.675 129.491 122.863 129.523 121.379 128.016C119.903 126.508 113.832 119.512 112.089 117.034C111.956 116.844 111.83 116.647 111.723 116.451H111.716C110.309 114.062 110.087 111.21 110.164 110.406C110.24 109.531 113.117 106.654 114.333 105.837C115.549 105.02 117.369 101.11 115.968 98.8663C115.297 97.7887 114.644 97.8276 114.048 98.2522C114.954 98.259 116.197 98.6634 115.6 100.977C114.7 104.463 113.913 104.355 112.221 106.154C110.528 107.948 107.995 109.64 107.995 110.165Z" fill="#E09C63"/>
<path d="M118.62 132.501C122.689 135.542 124.267 135.07 126.672 135.567C129.233 136.095 131.086 136.496 131.996 134.987C132.905 133.479 131.599 133.323 131.125 132.848C130.649 132.372 127.322 132.53 127.007 132.016C126.69 131.501 125.053 130.222 125.053 130.222C125.053 130.222 125.054 130.149 125.065 130.033L126.639 130.722C126.639 130.722 127.443 131.781 128.591 131.818C129.636 131.851 131.885 131.431 132.659 133.206C132.736 133.377 132.799 133.573 132.844 133.796C133.345 136.255 132.356 136.533 131.089 136.496C130.34 136.47 128.478 136.097 126.679 135.773C125.443 135.558 124.239 135.355 123.441 135.304C121.502 135.183 117.503 131.977 115.919 131.185C114.335 130.393 111.958 128.017 111.958 128.017L111.035 127.281C111.032 127.279 115.658 130.289 118.62 132.501Z" fill="#E09C63"/>
<path d="M130.491 134.617C130.491 134.617 131.599 134.59 131.996 134.987C132.392 135.383 132.255 136.338 132.255 136.338C132.255 136.338 130.703 136.68 130.359 136.279C130.015 135.877 129.995 135.289 130.491 134.617Z" fill="#FFE7C9"/>
<path d="M69.236 99.1311C69.2522 99.0988 69.3019 99.0652 69.3691 99.0303C69.2293 99.1714 69.1836 99.2345 69.236 99.1311Z" fill="#AE1F00"/>
<path d="M91.964 115.376C91.964 115.376 95.1619 118.849 97.3037 119.974C99.4455 121.099 101.817 124.408 103.349 125.209C104.074 125.588 105.069 126.066 105.883 126.175C106.227 126.221 106.493 126.315 106.826 126.077C107.401 125.667 106.978 125.393 107.016 124.767C107.045 124.267 107.421 123.853 107.898 123.7C109.739 123.105 111.063 125.161 112.158 126.303C113.5 127.704 114.865 129.198 116.605 130.112C119.688 131.731 121.166 132.647 121.182 131.89C121.198 131.133 119.508 127.937 117.765 126.261C116.022 124.586 113.223 121.839 111.904 119.621C110.584 117.402 108.947 116.4 108.418 114.974C107.89 113.549 104.387 112.227 104.819 110.907C105.25 109.588 106.255 109.852 106.888 108.953C107.522 108.056 108.999 106.214 109.21 104.902C109.395 103.756 107.995 103.164 107.995 103.164C107.995 103.164 104.804 106.82 102.134 106.63C99.4643 106.441 98.0467 108.881 96.167 108.742C94.2872 108.604 92.9879 110.657 91.964 115.376Z" fill="#FFD0A1"/>
<path d="M111.481 100.636C111.481 100.636 110.892 102.191 111.481 102.402C112.069 102.613 112.177 102.521 112.959 101.824C113.867 101.015 114.305 100.346 114.278 99.6325C114.251 98.919 113.886 98.3789 113.886 98.3789C113.886 98.3789 111.842 100.389 111.481 100.636Z" fill="#FFE1C9"/>
<path d="M31.0036 102.594C32.4292 104.812 35.5976 108.296 44.2279 112.416C52.8649 116.536 73.4081 122.739 75.7851 123.055C78.162 123.372 79.112 121.046 79.112 121.046L91.9627 125.21L92.3107 125.324C92.3107 125.324 92.3107 125.325 91.4803 123.924C91.4736 123.906 91.4669 123.899 91.4669 123.899C90.6177 122.473 90.0923 120.521 90.5169 114.711C90.9348 108.9 95.1619 107 95.1619 107C95.1619 107 95.1619 107 93.5778 107C91.9936 107 88.4571 105.789 88.4571 105.789C88.4571 105.789 88.4571 105.789 88.4504 105.782C88.3805 105.726 87.835 105.257 87.2397 104.413C86.6055 103.513 84.281 101.296 83.0126 100.295C81.7455 99.2938 73.0319 97.1775 73.0319 97.1775C73.0319 97.1775 71.9234 96.5433 71.1306 95.4912C70.3392 94.4324 66.1685 94.2752 66.1685 94.2752L62.5245 91.424C62.5245 91.424 59.8318 88.9396 57.9305 87.3554C56.0292 85.7712 53.444 86.1958 53.444 86.1958L51.5428 83.9774C49.2612 83.1981 46.066 80.5457 44.2346 80.445C37.1562 80.0325 34.4138 86.3611 32.4238 90.9484C30.2565 95.9521 30.3452 101.561 31.0036 102.594Z" fill="#DD4026"/>
<path d="M44.24 80.4419C44.3851 81.1446 44.5128 81.7278 44.854 81.7278C45.6455 81.7278 49.4883 84.9243 49.4883 84.9243L49.1148 86.0839C49.1148 86.0839 50.3321 85.666 51.2821 85.666C52.2321 85.666 51.4407 86.3002 53.7087 86.616C55.9836 86.9331 55.7686 88.2002 55.7686 88.2002C55.7686 88.2002 55.7686 88.2002 54.0823 88.0927C52.3906 87.9852 50.6989 88.8841 50.6989 88.8841C50.6989 88.8841 50.699 88.8841 52.9738 88.7766C55.2419 88.6745 56.8771 88.7766 56.8771 88.7766C56.8771 88.7766 58.4102 89.9429 59.8869 90.9439C61.3703 91.9449 62.8456 93.8462 62.5796 94.8983C62.3203 95.9504 63.1117 95.7475 63.9353 95.4304C64.7657 95.1133 66.1725 95.3283 67.5471 94.9547C68.9163 94.5866 68.5481 96.1211 68.5481 96.1211C68.5481 96.1211 67.6479 96.1211 65.6458 96.1211C63.637 96.1211 63.9541 97.9712 63.9541 97.9712C63.9541 97.9712 64.5373 97.8073 66.28 97.4902C68.0227 97.1731 70.1323 96.9138 70.5004 96.9138C70.874 96.9138 73.0924 97.5977 73.0924 97.5977C73.0924 97.5977 73.0924 97.5977 71.4518 97.9014C70.3486 98.111 69.658 98.7371 69.3664 99.0287C69.9684 98.7183 72.434 98.3004 73.6688 97.9699C75.0433 97.6084 76.9446 98.8124 76.9446 98.8124C76.9446 98.8124 79.5298 99.972 81.1718 100.238C82.807 100.497 80.2715 101.347 79.6884 101.715C79.112 102.083 79.3713 103.35 80.3226 103.033C81.2739 102.716 81.114 104.358 82.9145 103.989C84.6572 103.628 88.2435 105.662 88.4531 105.777C88.3832 105.72 87.8377 105.251 87.2424 104.407C86.6082 103.507 84.2837 101.29 83.0153 100.289C81.7482 99.288 73.0346 97.1718 73.0346 97.1718C73.0346 97.1718 71.9261 96.5376 71.1333 95.4855C70.3419 94.4267 66.1712 94.2695 66.1712 94.2695L62.5272 91.4182C62.5272 91.4182 59.8345 88.9338 57.9332 87.3496C56.0319 85.7655 53.4467 86.19 53.4467 86.19L51.5455 83.9717C49.2666 83.1964 46.0714 80.544 44.24 80.4419Z" fill="#AE1F00"/>
<path d="M31.0037 102.594C32.4293 104.812 35.5977 108.296 44.228 112.416C52.865 116.535 73.4082 122.739 75.7851 123.055C78.1621 123.372 79.112 121.046 79.112 121.046L92.3121 125.323C91.9641 124.698 91.5328 124.037 91.4697 123.897C91.4697 123.897 87.9305 122.49 86.13 121.926C84.3362 121.356 81.4675 120.513 79.9558 119.702C77.9713 118.64 76.5779 116.926 75.4129 116.021C74.2534 115.115 73.6192 118.302 73.1946 118.828C72.7767 119.354 70.2412 119.987 69.2912 119.569C68.3413 119.145 70.4508 117.244 70.4508 116.021C70.4508 114.798 67.5996 116.502 65.4887 116.021C63.9354 115.667 63.011 113.907 62.1336 112.737C61.7654 112.245 61.369 111.473 60.6918 111.428C60.2498 111.399 59.8722 111.72 59.4597 111.812C59.0754 111.898 58.6737 111.854 58.288 111.802C56.8597 111.802 55.207 111.19 53.8835 110.7C52.7898 110.294 50.9557 109.957 50.3134 108.886C49.9103 108.214 50.0084 107.323 49.5798 106.668C49.3755 106.355 49.0638 106.121 48.8663 105.804C48.5949 105.367 48.5666 104.825 48.5828 104.312C48.5881 104.152 48.5962 103.988 48.5425 103.838C48.4887 103.687 48.3557 103.553 48.1958 103.552C48.0346 103.55 47.8975 103.685 47.8438 103.838C47.79 103.99 47.8021 104.156 47.8142 104.318C47.9136 105.607 48.4323 107.366 48.0399 108.631C47.137 108.71 46.2461 108.561 45.362 108.858C44.8689 109.023 44.4188 109.292 43.9068 109.406C43.4043 109.517 42.7204 109.335 42.6814 108.823C42.6666 108.636 42.7473 108.457 42.8265 108.288C43.0644 107.777 43.3022 107.265 43.54 106.755C43.5078 106.717 43.4339 106.756 43.4446 106.803C43.4567 106.85 43.5414 106.849 43.5508 106.802C43.8007 105.665 44.0506 104.528 44.3019 103.393C44.4886 102.547 44.8541 101.704 44.7157 100.844C44.5975 100.115 44.537 99.0315 44.1809 98.3745C43.9095 97.8747 43.747 97.9499 43.5199 98.5049C42.6774 100.565 42.9932 101.933 41.8846 101.566C40.7761 101.199 41.3015 100.457 40.1419 97.9795C38.9756 95.5018 41.194 94.228 40.1419 94.228C39.0831 94.228 38.3428 96.0218 37.4989 97.872C36.6565 99.7289 37.1818 101.724 36.8647 103.999C36.5476 106.267 36.0223 103.201 34.4381 100.882C32.8539 98.5559 32.4293 90.9521 32.4293 90.9521C30.2566 95.9519 30.3453 101.56 31.0037 102.594Z" fill="#AE1F00"/>
<path d="M79.112 121.046C79.112 121.046 75.9409 118.009 76.1787 114.313C76.4166 110.617 77.1287 107.079 80.4032 104.835C83.6777 102.591 85.5561 104.406 86.1782 104.676C86.8003 104.946 88.0742 105.575 88.0742 105.575C88.0742 105.575 85.6058 102.036 82.7008 102.854C79.7972 103.673 76.5832 104.696 75.308 112.253C74.2519 118.511 78.7948 121.61 78.7948 121.61L79.112 121.046Z" fill="#970900"/>
<path d="M45.3888 87.6197C45.3888 87.6197 49.6536 86.0208 51.1236 86.1941C52.5935 86.3674 55.4542 87.2502 53.3943 87.6197C51.3345 87.9892 47.6381 88.4648 46.2649 89.8381C44.8917 91.2113 43.7832 93.2711 43.7832 93.2711C43.7832 93.2711 48.3059 89.7199 48.9495 89.7266C49.5931 89.7333 54.4142 88.5186 54.1145 89.3114C53.8162 90.1028 50.7541 92.3736 50.226 92.7431C49.6979 93.1126 48.1138 95.2248 48.1138 95.2248C48.1138 95.2248 53.0141 92.954 54.128 92.4783C55.2419 92.0027 55.1371 93.4579 54.9785 94.2359C54.82 95.0125 54.7138 96.809 55.1371 96.7552C55.559 96.7028 58.4116 93.036 59.2554 94.2359C60.1005 95.4358 60.1529 97.0199 59.731 97.6528C59.3091 98.287 62.6575 95.8496 63.2971 95.6413C63.9367 95.4331 66.0906 95.1885 66.2222 95.1737C66.3539 95.1603 66.3539 95.1603 66.3539 95.1603C66.3539 95.1603 62.5823 96.9662 61.9494 97.759C61.3152 98.5517 60.6299 100.136 60.6299 100.136C60.6299 100.136 62.636 99.5648 63.7459 99.0314C64.8544 98.498 69.5021 98.0196 67.8118 99.1832C66.1215 100.347 64.2202 101.666 64.2202 101.666C64.2202 101.666 69.4484 100.03 70.4521 99.6065C71.4558 99.1846 73.9375 100.028 73.9375 100.452C73.9375 100.874 71.1387 103.25 71.1387 103.25L77.423 101.297L79.9571 100.61C79.9571 100.61 79.4291 101.631 78.2668 102.732C77.1045 103.831 74.2009 107.127 74.2009 107.127C74.2009 107.127 72.5106 114.024 70.0826 114.711C67.6546 115.397 66.7557 115.978 64.6434 114.182C62.5312 112.387 61.158 108.374 59.8909 108.743C58.6239 109.113 56.4055 111.542 56.4579 109.773C56.5103 108.004 57.2506 105.258 57.0921 105.258C56.9335 105.258 56.6702 104.202 55.825 106.314C54.9798 108.426 54.8213 109.376 54.6628 109.271C54.5042 109.165 52.2334 108.944 52.0749 107.127C51.9163 105.31 50.8078 106.155 50.015 103.198C49.2223 100.241 48.6418 99.2867 48.0614 99.1832C47.4809 99.0798 47.4272 100.453 46.7419 101.666C46.0553 102.881 44.9992 99.9733 44.9992 99.1832C44.9992 98.3932 43.415 96.0162 43.3088 96.4395C43.2027 96.8627 43.3612 100.083 42.5698 99.5017C41.7784 98.9212 41.4076 93.904 40.51 93.5345C39.6124 93.165 38.6625 91.1051 36.7074 90.9466C34.7538 90.788 34.4367 92.7417 34.3843 95.2234C34.3319 97.7052 36.3339 101.502 35.7037 101.719C35.0736 101.935 32.8001 94.9601 33.222 93.3759C33.6439 91.7917 33.222 89.521 35.3866 87.4088C37.5513 85.2965 36.0208 87.6197 36.3366 88.5172C36.6537 89.4148 37.8146 89.0977 38.3427 88.6758C38.8707 88.2539 41.2463 85.8246 42.461 85.6136C43.6757 85.4027 47.0026 84.5575 46.3684 85.6136C45.7368 86.6684 43.9834 87.5135 45.3888 87.6197Z" fill="#FF5236"/>
<path d="M51.1236 112.171C51.1236 112.171 53.6577 112.887 55.559 113.758C57.4603 114.629 59.4408 114.847 59.6773 114.579C59.9151 114.312 61.975 113.428 61.975 113.428C61.975 113.428 64.3358 113.657 62.8779 114.579C61.42 115.501 61.2776 116.021 61.2776 116.021C61.2776 116.021 63.4799 117.678 65.064 117.698C66.6482 117.718 64.8114 118.59 62.8779 118.194C60.9444 117.797 60.3572 115.987 58.3941 116.021C56.431 116.055 52.2321 113.679 50.5686 113.52C48.9052 113.362 44.232 111.619 43.5978 111.065C42.9649 110.511 46.8467 111.534 51.1236 112.171Z" fill="#DD4026"/>
</g>
<path d="M113.131 71.1899L154.23 94.7712L153.337 87.1633L113.316 71.0059L113.131 71.1899Z" fill="#AB774D"/>
<path d="M119.869 67.2246L131.386 73.5788L124.595 77.4835L113.321 71.0016L119.869 67.2246Z" fill="#E6E1E4"/>
<path d="M153.868 86.1272L154.417 94.5815L131.449 81.415L138.43 77.5225L153.868 86.1272Z" fill="#E6E1E4"/>
<path d="M107.431 94.7657L158.577 66.3003L158.471 66.9291L107.987 95.0264L107.431 94.7657Z" fill="#C39055"/>
<path d="M138.43 77.5222L131.449 81.4148L124.595 77.4833L131.386 73.5786L138.43 77.5222Z" fill="#F9F9F9"/>
<path d="M124.595 77.4834L131.449 81.4149L107.425 94.7709L100.878 90.9804L124.595 77.4834Z" fill="#F1F1F1"/>
<path d="M158.583 66.2988L138.43 77.5223L131.386 73.5787L151.332 62.1885L158.583 66.2988Z" fill="#F1F1F1"/>
<path d="M154.701 117.664V86.896L147.636 90.9754V121.742L154.701 117.664Z" fill="#9C480C"/>
<path d="M154.968 117.824V86.7344L147.903 90.8137V121.902L154.968 117.824Z" fill="#D6D6D6"/>
<path d="M150.484 84.2637L154.079 86.7346L147.903 90.3021V90.814L154.968 86.7346L150.484 84.2637Z" fill="#F1F1F1"/>
<path d="M126.226 114.995L137.972 108.206V98.3901L126.445 104.555L126.226 105.18V114.995Z" fill="#9C480C"/>
<path d="M126.684 104.741L138.43 97.9506L138.191 97.7651L126.445 104.555L126.684 104.741Z" fill="#FEFEFE"/>
<path d="M126.684 114.557V104.741L126.445 104.555V114.37L126.684 114.557Z" fill="#8B8B8B"/>
<path d="M126.684 114.557L138.43 107.767V97.9512L126.684 104.742V114.557Z" fill="#D6D6D6"/>
<path d="M127.341 106.077L137.775 100.047V99.4248L127.341 105.455V106.077Z" fill="#6F6F6F"/>
<path d="M131.658 106.327L137.775 102.803V102.181L131.658 105.705V106.327Z" fill="#8E8E8E"/>
<path d="M127.381 112.935L130.569 111.095V105.814L127.381 107.656V112.935Z" fill="#8E8E8E"/>
<path d="M131.658 107.679L137.775 104.154V103.532L131.658 107.057V107.679Z" fill="#8E8E8E"/>
<path d="M131.658 109.03L137.775 105.506V104.884L131.658 108.408V109.03Z" fill="#8E8E8E"/>
<path d="M131.658 110.382L137.775 106.859V106.236L131.658 109.76V110.382Z" fill="#8E8E8E"/>
<defs>
<linearGradient id="paint0_linear_191_1498" x1="19.0029" y1="154.998" x2="108.475" y2="0.028235" gradientUnits="userSpaceOnUse">
<stop stop-color="#7E7A76"/>
<stop offset="0.0115" stop-color="#807C78"/>
<stop offset="0.0156" stop-color="#86827F"/>
<stop offset="0.0186" stop-color="#918E8A"/>
<stop offset="0.0209" stop-color="#A19E9B"/>
<stop offset="0.0215" stop-color="#A6A3A0"/>
<stop offset="0.4128" stop-color="#A6A3A0"/>
<stop offset="0.4165" stop-color="#AFACA9"/>
<stop offset="0.426" stop-color="#BFBDBA"/>
<stop offset="0.4378" stop-color="#CBC8C5"/>
<stop offset="0.4544" stop-color="#D1CFCC"/>
<stop offset="0.5005" stop-color="#D3D1CE"/>
<stop offset="0.5019" stop-color="#D1CFCC"/>
<stop offset="0.5025" stop-color="#CCCAC5"/>
<stop offset="0.6218" stop-color="#D9D7D5"/>
<stop offset="0.6291" stop-color="#E8E6E4"/>
<stop offset="0.8431" stop-color="#E8E8E6"/>
<stop offset="0.9644" stop-color="#E8E8E6"/>
<stop offset="0.9844" stop-color="#E8E8E6"/>
<stop offset="0.9907" stop-color="#E8E6E4"/>
</linearGradient>
<linearGradient id="paint1_linear_191_1498" x1="-0.381005" y1="143.807" x2="88.4278" y2="-10.0146" gradientUnits="userSpaceOnUse">
<stop stop-color="#666360"/>
<stop offset="0.0115" stop-color="#686562"/>
<stop offset="0.0157" stop-color="#6E6B69"/>
<stop offset="0.0187" stop-color="#7A7774"/>
<stop offset="0.021" stop-color="#8A8785"/>
<stop offset="0.0215" stop-color="#8E8B89"/>
<stop offset="0.4128" stop-color="#8E8B89"/>
<stop offset="0.4165" stop-color="#979492"/>
<stop offset="0.426" stop-color="#A7A5A3"/>
<stop offset="0.4378" stop-color="#B3B0AE"/>
<stop offset="0.4544" stop-color="#B9B7B5"/>
<stop offset="0.5005" stop-color="#BBB9B7"/>
<stop offset="0.5019" stop-color="#B9B7B5"/>
<stop offset="0.5025" stop-color="#B4B2AE"/>
<stop offset="0.6218" stop-color="#C1BFBD"/>
<stop offset="0.6291" stop-color="#D0CECC"/>
<stop offset="0.8431" stop-color="#D0D0CE"/>
<stop offset="0.9644" stop-color="#D0D0CE"/>
<stop offset="0.9844" stop-color="#D0D0CE"/>
<stop offset="0.9907" stop-color="#D0CECC"/>
</linearGradient>
</defs>
</svg>
