<svg width="20" height="20" viewBox="0 0 20 20" fill="none" xmlns="http://www.w3.org/2000/svg">
<path d="M7.5 19.9993H0.833333C0.61232 19.9993 0.400358 19.9116 0.244078 19.7553C0.0877974 19.599 0 19.387 0 19.166C0 18.945 0.0877974 18.733 0.244078 18.5768C0.400358 18.4205 0.61232 18.3327 0.833333 18.3327H7.5C7.72101 18.3327 7.93298 18.4205 8.08926 18.5768C8.24554 18.733 8.33333 18.945 8.33333 19.166C8.33333 19.387 8.24554 19.599 8.08926 19.7553C7.93298 19.9116 7.72101 19.9993 7.5 19.9993ZM5.83333 16.666H0.833333C0.61232 16.666 0.400358 16.5782 0.244078 16.4219C0.0877974 16.2657 0 16.0537 0 15.8327C0 15.6117 0.0877974 15.3997 0.244078 15.2434C0.400358 15.0871 0.61232 14.9993 0.833333 14.9993H5.83333C6.05435 14.9993 6.26631 15.0871 6.42259 15.2434C6.57887 15.3997 6.66667 15.6117 6.66667 15.8327C6.66667 16.0537 6.57887 16.2657 6.42259 16.4219C6.26631 16.5782 6.05435 16.666 5.83333 16.666ZM4.16667 13.3327H0.833333C0.61232 13.3327 0.400358 13.2449 0.244078 13.0886C0.0877974 12.9323 0 12.7204 0 12.4993C0 12.2783 0.0877974 12.0664 0.244078 11.9101C0.400358 11.7538 0.61232 11.666 0.833333 11.666H4.16667C4.38768 11.666 4.59964 11.7538 4.75592 11.9101C4.9122 12.0664 5 12.2783 5 12.4993C5 12.7204 4.9122 12.9323 4.75592 13.0886C4.59964 13.2449 4.38768 13.3327 4.16667 13.3327Z" fill="#2F2F2F"/>
<path d="M10.8335 19.9622C10.6125 19.9721 10.3966 19.8937 10.2334 19.7444C10.0701 19.595 9.9729 19.387 9.96306 19.166C9.95323 18.945 10.0316 18.7291 10.1809 18.5659C10.3302 18.4026 10.5383 18.3054 10.7593 18.2956C12.3364 18.1513 13.8396 17.5606 15.0931 16.5927C16.3465 15.6248 17.2982 14.3198 17.8367 12.8306C18.3752 11.3413 18.4782 9.72943 18.1337 8.18374C17.7891 6.63804 17.0113 5.22252 15.8912 4.10298C14.7711 2.98344 13.3553 2.20622 11.8094 1.86237C10.2636 1.51852 8.65172 1.62226 7.1627 2.16145C5.67369 2.70063 4.36913 3.65294 3.40183 4.90683C2.43454 6.16073 1.84455 7.66428 1.70098 9.24139C1.69113 9.35039 1.65991 9.45638 1.6091 9.55331C1.55829 9.65024 1.48888 9.73622 1.40484 9.80633C1.32081 9.87643 1.22378 9.9293 1.11932 9.96192C1.01485 9.99453 0.904976 10.0062 0.795979 9.9964C0.686982 9.98655 0.580992 9.95532 0.484061 9.90451C0.38713 9.8537 0.301156 9.7843 0.231048 9.70026C0.160939 9.61622 0.10807 9.5192 0.0754581 9.41473C0.0428461 9.31026 0.0311302 9.20039 0.0409794 9.09139C0.273387 6.52748 1.48565 4.15198 3.42542 2.45937C5.36519 0.766755 7.88301 -0.11255 10.4548 0.00448942C13.0265 0.121529 15.4541 1.2259 17.2321 3.0877C19.0101 4.94951 20.0016 7.42531 20.0001 9.99973C20.0129 12.4983 19.0847 14.9102 17.4001 16.7556C15.7154 18.6009 13.3979 19.7445 10.9085 19.9589C10.8835 19.9612 10.8585 19.9623 10.8335 19.9622Z" fill="#2F2F2F"/>
<path d="M9.99984 5C9.77882 5 9.56686 5.0878 9.41058 5.24408C9.2543 5.40036 9.1665 5.61232 9.1665 5.83333V10C9.16655 10.221 9.25438 10.4329 9.41067 10.5892L11.9107 13.0892C12.0678 13.241 12.2783 13.325 12.4968 13.3231C12.7153 13.3212 12.9243 13.2335 13.0789 13.079C13.2334 12.9245 13.321 12.7155 13.3229 12.497C13.3248 12.2785 13.2408 12.068 13.089 11.9108L10.8332 9.655V5.83333C10.8332 5.61232 10.7454 5.40036 10.5891 5.24408C10.4328 5.0878 10.2209 5 9.99984 5Z" fill="#2F2F2F"/>
</svg>
