<svg width="219" height="244" viewBox="0 0 219 244" fill="none" xmlns="http://www.w3.org/2000/svg">
<path d="M50 59.375C50 26.6375 76.6375 0 109.375 0C142.113 0 168.75 26.6375 168.75 59.375C168.75 92.1125 142.113 118.75 109.375 118.75C76.6375 118.75 50 92.1125 50 59.375ZM146.875 137.5H71.875C32.25 137.5 0 169.75 0 209.375C0.00662171 218.49 3.63039 227.229 10.0755 233.674C16.5206 240.12 25.2602 243.743 34.375 243.75H184.375C193.49 243.743 202.229 240.12 208.674 233.674C215.12 227.229 218.743 218.49 218.75 209.375C218.75 169.75 186.5 137.5 146.875 137.5Z" fill="white"/>
</svg>
