<svg width="20" height="20" viewBox="0 0 20 20" fill="none" xmlns="http://www.w3.org/2000/svg">
<path d="M15.6775 8.33336C15.8046 8.33339 15.9299 8.30437 16.044 8.24851C16.1582 8.19266 16.258 8.11145 16.3359 8.01109C16.4138 7.91074 16.4678 7.7939 16.4936 7.6695C16.5195 7.5451 16.5165 7.41644 16.485 7.29336C16.2255 6.27891 15.6979 5.35294 14.9575 4.61252L12.0533 1.70836C11.5129 1.16499 10.87 0.734218 10.162 0.440982C9.4539 0.147745 8.69471 -0.00213347 7.92833 2.29425e-05H4.16583C3.06125 0.00134657 2.00229 0.440785 1.22131 1.22192C0.440329 2.00306 0.00110269 3.0621 0 4.16669L0 15.8334C0 18.1309 1.86917 20 4.16667 20H6.66667C6.88768 20 7.09964 19.9122 7.25592 19.7559C7.4122 19.5997 7.5 19.3877 7.5 19.1667C7.5 18.9457 7.4122 18.7337 7.25592 18.5774C7.09964 18.4212 6.88768 18.3334 6.66667 18.3334H4.16667C2.78833 18.3334 1.66667 17.2117 1.66667 15.8334V4.16669C1.66667 2.78836 2.78833 1.66669 4.16667 1.66669H7.92917C8.065 1.66669 8.2 1.67336 8.33333 1.68586V5.83336C8.33333 7.21169 9.455 8.33336 10.8333 8.33336H15.6775ZM10 5.83336V2.21586C10.3158 2.39752 10.61 2.62252 10.875 2.88752L13.7792 5.79169C14.0408 6.05336 14.265 6.34836 14.4483 6.66669H10.8333C10.3742 6.66669 10 6.29252 10 5.83336ZM19.2683 9.89919C18.3233 8.95419 16.6767 8.95419 15.7325 9.89919L10.1433 15.4884C9.83279 15.7973 9.58658 16.1647 9.41894 16.5693C9.2513 16.974 9.16555 17.4079 9.16667 17.8459V19.1675C9.16667 19.3885 9.25446 19.6005 9.41074 19.7568C9.56702 19.9131 9.77899 20.0009 10 20.0009H11.3217C11.7596 20.002 12.1933 19.9163 12.5978 19.7486C13.0024 19.581 13.3696 19.3347 13.6783 19.0242L19.2675 13.435C19.74 12.9625 20 12.335 20 11.6667C20 10.9984 19.74 10.3709 19.2683 9.89919ZM18.0892 12.2559L12.4992 17.845C12.3449 18.0004 12.1613 18.1236 11.959 18.2075C11.7567 18.2913 11.5398 18.3341 11.3208 18.3334H10.8325V17.845C10.8325 17.4 11.0058 16.9817 11.3208 16.6667L16.9108 11.0775C17.0695 10.9258 17.2805 10.8412 17.5 10.8412C17.7195 10.8412 17.9305 10.9258 18.0892 11.0775C18.2467 11.2342 18.3333 11.4434 18.3333 11.6667C18.3333 11.89 18.2467 12.0984 18.0892 12.2559Z" fill="black"/>
</svg>
