<svg width="21" height="21" viewBox="0 0 21 21" fill="none" xmlns="http://www.w3.org/2000/svg">
<path d="M20.1558 19.5778L15.1816 14.6036C16.5372 12.9458 17.2036 10.8304 17.0432 8.69494C16.8827 6.5595 15.9076 4.56742 14.3196 3.13074C12.7316 1.69407 10.6521 0.922717 8.51133 0.976243C6.37054 1.02977 4.33222 1.90408 2.81798 3.41832C1.30373 4.93256 0.429428 6.97088 0.375902 9.11168C0.322375 11.2525 1.09372 13.3319 2.5304 14.92C3.96707 16.508 5.95916 17.4831 8.0946 17.6435C10.23 17.804 12.3455 17.1375 14.0033 15.782L18.9775 20.7561C19.1346 20.9079 19.3451 20.9919 19.5636 20.99C19.7821 20.9881 19.9911 20.9005 20.1456 20.746C20.3002 20.5915 20.3878 20.3825 20.3897 20.164C20.3916 19.9455 20.3076 19.735 20.1558 19.5778ZM8.7333 16.0003C7.41476 16.0003 6.12582 15.6093 5.0295 14.8768C3.93317 14.1442 3.07869 13.103 2.5741 11.8849C2.06952 10.6667 1.93749 9.32625 2.19473 8.03304C2.45196 6.73983 3.0869 5.55195 4.01925 4.61959C4.9516 3.68724 6.13949 3.05231 7.4327 2.79507C8.7259 2.53784 10.0663 2.66986 11.2845 3.17444C12.5027 3.67903 13.5439 4.53351 14.2764 5.62984C15.009 6.72617 15.4 8.0151 15.4 9.33364C15.398 11.1011 14.695 12.7957 13.4452 14.0455C12.1953 15.2953 10.5008 15.9983 8.7333 16.0003Z" fill="#969696"/>
</svg>
