<svg width="20" height="20" viewBox="0 0 20 20" fill="none" xmlns="http://www.w3.org/2000/svg">
<path d="M17.5 10H15C14.0808 10 13.3333 10.7475 13.3333 11.6667C13.3333 12.5858 12.5858 13.3333 11.6667 13.3333H8.33333C7.41417 13.3333 6.66667 12.5858 6.66667 11.6667C6.66667 10.7475 5.91917 10 5 10H2.5C1.12167 10 0 11.1217 0 12.5V15.8333C0 18.1308 1.86917 20 4.16667 20H15.8333C18.1308 20 20 18.1308 20 15.8333V12.5C20 11.1217 18.8783 10 17.5 10ZM18.3333 15.8333C18.3333 17.2117 17.2117 18.3333 15.8333 18.3333H4.16667C2.78833 18.3333 1.66667 17.2117 1.66667 15.8333V12.5C1.66667 12.279 1.75446 12.067 1.91074 11.9107C2.06702 11.7545 2.27899 11.6667 2.5 11.6667L5 11.665V11.6667C5 13.505 6.495 15 8.33333 15H11.6667C13.505 15 15 13.505 15 11.6667H17.5C17.721 11.6667 17.933 11.7545 18.0893 11.9107C18.2455 12.067 18.3333 12.279 18.3333 12.5V15.8333ZM6.0775 4.41083C6.00005 4.33351 5.9386 4.24167 5.89667 4.14058C5.85475 4.03948 5.83317 3.93111 5.83317 3.82167C5.83317 3.71222 5.85475 3.60385 5.89667 3.50276C5.9386 3.40166 6.00005 3.30982 6.0775 3.2325L8.82167 0.488333C9.13119 0.178746 9.55056 0.00410554 9.98833 0.0025L10 0L10.0117 0.0025C10.4495 0.00401489 10.8689 0.178669 11.1783 0.488333L13.9225 3.2325C14.0788 3.38876 14.1665 3.60069 14.1665 3.82167C14.1665 4.04265 14.0788 4.25458 13.9225 4.41083C13.7662 4.56709 13.5543 4.65487 13.3333 4.65487C13.1124 4.65487 12.9004 4.56709 12.7442 4.41083L10.8333 2.5V8.33333C10.8333 8.55435 10.7455 8.76631 10.5893 8.92259C10.433 9.07887 10.221 9.16667 10 9.16667C9.77899 9.16667 9.56702 9.07887 9.41074 8.92259C9.25446 8.76631 9.16667 8.55435 9.16667 8.33333V2.5L7.25583 4.41083C7.17851 4.48829 7.08667 4.54974 6.98558 4.59166C6.88448 4.63359 6.77611 4.65517 6.66667 4.65517C6.55722 4.65517 6.44885 4.63359 6.34776 4.59166C6.24666 4.54974 6.15482 4.48829 6.0775 4.41083Z" fill="#05028D"/>
</svg>
