<svg width="20" height="21" viewBox="0 0 20 21" fill="none" xmlns="http://www.w3.org/2000/svg">
<path d="M20.0009 9.3925C19.8804 7.44252 19.1919 5.57043 18.0203 4.00702C16.8486 2.44362 15.2451 1.25724 13.4074 0.594164C11.5696 -0.068918 9.57802 -0.179721 7.67807 0.275414C5.77812 0.730549 4.05289 1.73173 2.71507 3.15552C1.37724 4.57931 0.485308 6.36347 0.149226 8.28805C-0.186857 10.2126 0.0476043 12.1935 0.823704 13.9864C1.5998 15.7794 2.88361 17.306 4.51686 18.3781C6.15011 19.4503 8.0614 20.021 10.0151 20.02H15.8343C16.939 20.0189 17.9982 19.5796 18.7793 18.7984C19.5605 18.0172 19.9998 16.9581 20.0009 15.8533V9.3925ZM18.3343 15.8533C18.3343 16.5164 18.0709 17.1523 17.602 17.6211C17.1332 18.0899 16.4973 18.3533 15.8343 18.3533H10.0151C8.83922 18.3528 7.67664 18.1044 6.60319 17.6244C5.52973 17.1444 4.5695 16.4435 3.78511 15.5675C2.99692 14.6919 2.40505 13.6579 2.04919 12.5348C1.69332 11.4118 1.58169 10.2256 1.72177 9.05583C1.94297 7.21079 2.77193 5.49182 4.07797 4.16994C5.38402 2.84805 7.09286 1.99843 8.93511 1.755C9.29447 1.70996 9.65627 1.68714 10.0184 1.68667C11.9605 1.68137 13.8424 2.35992 15.3343 3.60333C16.2055 4.32745 16.9207 5.22096 17.4364 6.22969C17.9521 7.23842 18.2575 8.34137 18.3343 9.47167V15.8533Z" fill="#969696"/>
<path d="M6.66761 7.52006H10.0009C10.222 7.52006 10.4339 7.43226 10.5902 7.27598C10.7465 7.1197 10.8343 6.90774 10.8343 6.68673C10.8343 6.46571 10.7465 6.25375 10.5902 6.09747C10.4339 5.94119 10.222 5.85339 10.0009 5.85339H6.66761C6.44659 5.85339 6.23463 5.94119 6.07835 6.09747C5.92207 6.25375 5.83427 6.46571 5.83427 6.68673C5.83427 6.90774 5.92207 7.1197 6.07835 7.27598C6.23463 7.43226 6.44659 7.52006 6.66761 7.52006ZM13.3343 9.18673H6.66761C6.44659 9.18673 6.23463 9.27452 6.07835 9.4308C5.92207 9.58708 5.83427 9.79905 5.83427 10.0201C5.83427 10.2411 5.92207 10.453 6.07835 10.6093C6.23463 10.7656 6.44659 10.8534 6.66761 10.8534H13.3343C13.5553 10.8534 13.7673 10.7656 13.9235 10.6093C14.0798 10.453 14.1676 10.2411 14.1676 10.0201C14.1676 9.79905 14.0798 9.58708 13.9235 9.4308C13.7673 9.27452 13.5553 9.18673 13.3343 9.18673ZM13.3343 12.5201H6.66761C6.44659 12.5201 6.23463 12.6079 6.07835 12.7641C5.92207 12.9204 5.83427 13.1324 5.83427 13.3534C5.83427 13.5744 5.92207 13.7864 6.07835 13.9426C6.23463 14.0989 6.44659 14.1867 6.66761 14.1867H13.3343C13.5553 14.1867 13.7673 14.0989 13.9235 13.9426C14.0798 13.7864 14.1676 13.5744 14.1676 13.3534C14.1676 13.1324 14.0798 12.9204 13.9235 12.7641C13.7673 12.6079 13.5553 12.5201 13.3343 12.5201Z" fill="#969696"/>
</svg>
