<svg width="20" height="20" viewBox="0 0 20 20" fill="none" xmlns="http://www.w3.org/2000/svg">
<path d="M6.66679 10.0001C6.66679 11.8384 8.16179 13.3334 10.0001 13.3334C11.8385 13.3334 13.3335 11.8384 13.3335 10.0001C13.3335 8.16177 11.8385 6.66677 10.0001 6.66677C8.16179 6.66677 6.66679 8.16177 6.66679 10.0001ZM11.6668 10.0001C11.6668 10.9193 10.9193 11.6668 10.0001 11.6668C9.08096 11.6668 8.33346 10.9193 8.33346 10.0001C8.33346 9.08094 9.08096 8.33344 10.0001 8.33344C10.9193 8.33344 11.6668 9.08094 11.6668 10.0001ZM4.58346 6.66677C4.91509 6.66688 5.23309 6.79873 5.46751 7.03331C5.70193 7.26788 5.83357 7.58598 5.83346 7.91761C5.83334 8.24924 5.7015 8.56724 5.46692 8.80166C5.23235 9.03608 4.91425 9.16772 4.58262 9.16761C4.25099 9.1675 3.93299 9.03565 3.69857 8.80107C3.46415 8.5665 3.33251 8.2484 3.33262 7.91677C3.33273 7.58514 3.46458 7.26714 3.69915 7.03272C3.93373 6.7983 4.25182 6.66666 4.58346 6.66677ZM16.6668 12.0834C16.6667 12.2476 16.6343 12.4102 16.5714 12.5619C16.5086 12.7136 16.4164 12.8514 16.3003 12.9675C16.1841 13.0836 16.0462 13.1756 15.8945 13.2384C15.7428 13.3012 15.5802 13.3335 15.416 13.3334C15.2517 13.3334 15.0892 13.301 14.9375 13.2381C14.7858 13.1752 14.648 13.0831 14.5319 12.9669C14.4158 12.8508 14.3238 12.7129 14.261 12.5612C14.1982 12.4094 14.1659 12.2468 14.166 12.0826C14.1661 11.751 14.2979 11.433 14.5325 11.1986C14.7671 10.9641 15.0852 10.8325 15.4168 10.8326C15.7484 10.8327 16.0664 10.9646 16.3008 11.1991C16.5353 11.4337 16.6669 11.7518 16.6668 12.0834ZM0.000121552 10.8334V7.50011C0.000121552 5.20261 1.86929 3.33344 4.16679 3.33344H17.5093L16.4768 2.23844C16.3348 2.07592 16.2613 1.86471 16.2718 1.64917C16.2823 1.43363 16.3759 1.23053 16.5329 1.08254C16.69 0.934545 16.8983 0.853174 17.1141 0.855518C17.3298 0.857862 17.5363 0.943737 17.6901 1.09511L19.5601 3.07927C20.1518 3.67011 20.1518 4.66177 19.5426 5.27094L17.6901 7.23761C17.6152 7.3176 17.5253 7.38199 17.4254 7.42707C17.3256 7.47215 17.2178 7.49704 17.1082 7.50029C16.9987 7.50354 16.8896 7.4851 16.7873 7.44602C16.6849 7.40695 16.5913 7.34801 16.5118 7.27261C16.4321 7.19755 16.368 7.10753 16.3231 7.00768C16.2782 6.90783 16.2534 6.80012 16.2501 6.69069C16.2469 6.58126 16.2652 6.47227 16.3041 6.36993C16.343 6.2676 16.4017 6.17393 16.4768 6.09427L17.5085 4.99927H4.16679C2.78845 4.99927 1.66679 6.12094 1.66679 7.49927V10.8326C1.66679 11.0536 1.57899 11.2656 1.42271 11.4219C1.26643 11.5781 1.05447 11.6659 0.833455 11.6659C0.612441 11.6659 0.40048 11.5781 0.244199 11.4219C0.0879189 11.2656 0.000121552 11.0536 0.000121552 10.8326V10.8334ZM20.0001 9.58344V12.5001C20.0001 14.7976 18.131 16.6668 15.8335 16.6668H2.49096L3.52346 17.7618C3.66543 17.9243 3.7389 18.1355 3.72843 18.351C3.71796 18.5666 3.62437 18.7697 3.46732 18.9177C3.31026 19.0657 3.10197 19.147 2.88619 19.1447C2.6704 19.1424 2.46392 19.0565 2.31012 18.9051L0.440122 16.9209C-0.151545 16.3301 -0.151545 15.3384 0.457622 14.7293L2.31012 12.7626C2.38519 12.6829 2.47522 12.6188 2.57507 12.574C2.67491 12.5291 2.78262 12.5043 2.89204 12.5011C3.00146 12.4978 3.11045 12.5161 3.21278 12.555C3.31511 12.5939 3.40879 12.6525 3.48845 12.7276C3.56812 12.8027 3.63223 12.8927 3.6771 12.9926C3.72198 13.0924 3.74675 13.2001 3.75 13.3095C3.75325 13.4189 3.73491 13.5279 3.69604 13.6303C3.65717 13.7326 3.59853 13.8263 3.52346 13.9059L2.49179 15.0009H15.8335C17.2118 15.0009 18.3335 13.8793 18.3335 12.5009V9.58427C18.3335 9.36326 18.4213 9.1513 18.5775 8.99502C18.7338 8.83874 18.9458 8.75094 19.1668 8.75094C19.3878 8.75094 19.5998 8.83874 19.756 8.99502C19.9123 9.1513 20.0001 9.36326 20.0001 9.58427V9.58344Z" fill="#969696"/>
</svg>
