<svg width="20" height="18" viewBox="0 0 20 18" fill="none" xmlns="http://www.w3.org/2000/svg">
<path d="M13.3333 12.3332L9.99997 8.9999M9.99997 8.9999L6.66663 12.3332M9.99997 8.9999V16.4999M16.9916 14.3249C17.8044 13.8818 18.4465 13.1806 18.8165 12.3321C19.1866 11.4835 19.2635 10.5359 19.0351 9.63881C18.8068 8.7417 18.2862 7.94616 17.5555 7.37778C16.8248 6.80939 15.9257 6.50052 15 6.4999H13.95C13.6977 5.52427 13.2276 4.61852 12.5749 3.85073C11.9222 3.08295 11.104 2.47311 10.1817 2.06708C9.25943 1.66104 8.25709 1.46937 7.25006 1.50647C6.24304 1.54358 5.25752 1.80849 4.36761 2.28129C3.47771 2.7541 2.70656 3.42249 2.11215 4.23622C1.51774 5.04996 1.11554 5.98785 0.935783 6.9794C0.756025 7.97095 0.803388 8.99035 1.07431 9.96096C1.34523 10.9316 1.83267 11.8281 2.49997 12.5832" stroke="#475467" stroke-width="1.66667" stroke-linecap="round" stroke-linejoin="round"/>
</svg>
