<svg width="20" height="20" viewBox="0 0 20 20" fill="none" xmlns="http://www.w3.org/2000/svg">
<path d="M7.5 10C10.2575 10 12.5 7.7575 12.5 5C12.5 2.2425 10.2575 0 7.5 0C4.7425 0 2.5 2.2425 2.5 5C2.5 7.7575 4.7425 10 7.5 10ZM7.5 1.66667C9.33833 1.66667 10.8333 3.16167 10.8333 5C10.8333 6.83833 9.33833 8.33333 7.5 8.33333C5.66167 8.33333 4.16667 6.83833 4.16667 5C4.16667 3.16167 5.66167 1.66667 7.5 1.66667ZM19.2683 9.89917C18.3233 8.95417 16.6767 8.95417 15.7325 9.89917L9.16667 16.4642V20H12.7025L19.2675 13.435C19.74 12.9625 20 12.335 20 11.6667C20 10.9983 19.74 10.3708 19.2683 9.89917ZM18.0892 12.2558L12.0125 18.3333H10.8333V17.1542L16.9108 11.0775C17.0695 10.9258 17.2805 10.8411 17.5 10.8411C17.7195 10.8411 17.9305 10.9258 18.0892 11.0775C18.2467 11.2342 18.3333 11.4433 18.3333 11.6667C18.3333 11.89 18.2467 12.0983 18.0892 12.2558ZM9.94083 13.3333H4.16667C2.78833 13.3333 1.66667 14.455 1.66667 15.8333V20H0V15.8333C0 13.5358 1.86917 11.6667 4.16667 11.6667H10.8333C11.0742 11.6667 11.3067 11.6983 11.5367 11.7375L9.94083 13.3333Z" fill="#969696"/>
</svg>
