<svg width="20" height="20" viewBox="0 0 20 20" fill="none" xmlns="http://www.w3.org/2000/svg">
<path d="M9.99995 0C8.98415 0 8.15771 0.826474 8.15771 1.84228V3.09823C8.25019 5.53857 11.7498 5.53853 11.8422 3.09819V1.84228C11.8422 0.826474 11.0158 0 9.99995 0ZM18.1637 8.16378H16.9077C15.8919 8.16378 15.0655 8.99021 15.0655 10.006C15.0655 11.0218 15.8919 11.8483 16.9077 11.8483H18.1637C20.604 11.7558 20.604 8.25614 18.1637 8.16378ZM4.9344 10.006C4.9344 8.99021 4.10793 8.16378 3.09212 8.16378H1.83621C-0.604122 8.25626 -0.604083 11.7559 1.83625 11.8483H3.09216C4.10797 11.8483 4.9344 11.0218 4.9344 10.006ZM16.1872 6.42414L17.0753 5.53606C17.7935 4.81778 17.7936 3.64899 17.0753 2.93071C16.3569 2.21242 15.1882 2.21242 14.4699 2.93071L13.5818 3.81878C11.9217 5.60974 14.3963 8.08435 16.1872 6.42414ZM3.81271 13.5879L2.92464 14.476C2.20636 15.1943 2.20632 16.363 2.92464 17.0813C3.64293 17.7996 4.81171 17.7996 5.53 17.0813L6.41807 16.1933C8.07825 14.4023 5.6036 11.9276 3.81271 13.5879ZM16.1872 13.5879C14.3962 11.9277 11.9216 14.4024 13.5819 16.1933L14.4699 17.0813C15.1882 17.7996 16.357 17.7997 17.0753 17.0813C17.7936 16.363 17.7936 15.1943 17.0753 14.476L16.1872 13.5879ZM5.53 2.93071C3.739 1.27053 1.26438 3.74518 2.92464 5.53606L3.81271 6.42414C4.531 7.14242 5.69979 7.14246 6.41807 6.42414C7.13635 5.70585 7.13635 4.53707 6.41807 3.81878L5.53 2.93071ZM9.99995 15.0716C8.98415 15.0716 8.15771 15.898 8.15771 16.9138V18.1698C8.25019 20.6101 11.7498 20.6101 11.8422 18.1698V16.9138C11.8422 15.898 11.0158 15.0716 9.99995 15.0716Z" fill="#2F2F2F"/>
</svg>
