<svg width="20" height="20" viewBox="0 0 20 20" fill="none" xmlns="http://www.w3.org/2000/svg">
<path fill-rule="evenodd" clip-rule="evenodd" d="M17.0525 2.9067C16.1343 1.98254 15.0418 1.24977 13.8383 0.750828C12.6349 0.251886 11.3444 -0.00330655 10.0417 3.23448e-05C4.57915 3.23448e-05 0.133319 4.44503 0.130819 9.91003C0.128631 11.6493 0.585085 13.3584 1.45415 14.865L0.0474854 20L5.30082 18.6217C6.75379 19.4134 8.38201 19.8282 10.0367 19.8284H10.0408C15.5025 19.8284 19.9492 15.3825 19.9517 9.91753C19.956 8.61529 19.702 7.32513 19.2043 6.12172C18.7067 4.91831 17.9753 3.82555 17.0525 2.9067ZM10.0417 18.1542H10.0383C8.56307 18.1547 7.11489 17.7581 5.84582 17.0059L5.54498 16.8275L2.42749 17.645L3.25999 14.605L3.06415 14.2934C2.23902 12.9804 1.80246 11.4607 1.80499 9.91003C1.80665 5.36837 5.50249 1.67337 10.0458 1.67337C12.2458 1.67337 14.3142 2.5317 15.8692 4.08837C16.6361 4.85224 17.2439 5.76057 17.6576 6.76083C18.0713 7.7611 18.2825 8.83345 18.2792 9.91587C18.2767 14.4592 14.5817 18.1542 10.0417 18.1542ZM14.56 11.985C14.3125 11.8609 13.095 11.2617 12.8675 11.1792C12.6408 11.0967 12.4758 11.055 12.31 11.3025C12.1442 11.55 11.6708 12.1084 11.5258 12.2742C11.3817 12.4392 11.2367 12.46 10.9892 12.3359C10.7417 12.2117 9.94332 11.9509 8.99749 11.1067C8.26165 10.45 7.76415 9.6392 7.61999 9.39087C7.47582 9.14253 7.60499 9.0092 7.72832 8.88587C7.83999 8.77503 7.97582 8.5967 8.09999 8.4517C8.22499 8.30837 8.26582 8.20503 8.34915 8.0392C8.43165 7.8742 8.39082 7.7292 8.32832 7.60503C8.26582 7.4817 7.77082 6.26253 7.56499 5.7667C7.36415 5.28337 7.15999 5.3492 7.00749 5.3417C6.86332 5.3342 6.69832 5.33337 6.53249 5.33337C6.36749 5.33337 6.09915 5.39503 5.87249 5.64337C5.64582 5.8917 5.00582 6.49087 5.00582 7.7092C5.00582 8.92837 5.89332 10.1059 6.01665 10.2709C6.13999 10.4359 7.76248 12.9375 10.2467 14.01C10.8375 14.265 11.2992 14.4175 11.6583 14.5317C12.2517 14.72 12.7917 14.6934 13.2183 14.63C13.6942 14.5592 14.6833 14.0309 14.89 13.4525C15.0967 12.8742 15.0967 12.3775 15.0342 12.275C14.9725 12.1709 14.8075 12.1092 14.56 11.985Z" fill="#2DA718"/>
</svg>
